<svg width="143" height="114" viewBox="0 0 143 114" fill="none" xmlns="http://www.w3.org/2000/svg">
<path d="M0.843227 192.963C0.403927 192.963 0.0410156 192.6 0.0410156 192.161V131.747C0.0410156 112.437 13.6784 102.734 17.3647 100.461C14.4615 97.1762 3.53632 83.9972 3.53632 70.5699C3.53632 32.4654 61.8486 8.91512 64.3316 7.92192C64.5226 7.84552 64.7327 7.84552 64.9237 7.92192C67.4067 8.91512 125.738 32.4463 125.738 70.5699C125.738 83.9972 114.832 97.1762 111.91 100.461C115.596 102.734 129.233 112.418 129.233 131.747V166.796C129.233 167.235 128.871 167.598 128.431 167.598C127.992 167.598 127.629 167.235 127.629 166.796V131.747C127.629 110.508 110.439 101.474 110.267 101.378C110.038 101.264 109.885 101.054 109.828 100.786C109.79 100.538 109.866 100.27 110.038 100.099C110.172 99.9457 124.096 85.0859 124.096 70.5699C124.096 34.9102 69.183 11.4554 64.599 9.56453C60.015 11.4554 5.12162 34.9293 5.12162 70.5699C5.12162 85.0859 19.0455 99.9457 19.1792 100.099C19.3511 100.29 19.4275 100.538 19.3893 100.786C19.3511 101.034 19.1792 101.264 18.95 101.378C18.7781 101.474 1.58813 110.527 1.58813 131.747V192.161C1.58813 192.6 1.22521 192.963 0.785914 192.963H0.843227Z" fill="#4E261E"/>
<path d="M29.8943 104.931C30.3336 104.874 30.7156 104.702 30.983 104.434C31.3077 104.11 31.4796 103.67 31.4605 103.174C31.4605 102.276 30.792 101.359 29.5505 101.359H27.1821C27.1821 101.359 27.0293 101.416 27.0293 101.512V106.898C27.0293 106.898 27.0866 107.051 27.1821 107.051H27.6023C27.6023 107.051 27.7551 106.994 27.7551 106.898V105.007H29.0157L30.8302 106.994C30.8302 106.994 30.8875 107.032 30.9448 107.032H31.4987C31.4987 107.032 31.6133 106.994 31.6324 106.936C31.6515 106.879 31.6324 106.822 31.6133 106.784L29.9134 104.95L29.8943 104.931ZM30.7347 103.135C30.7347 103.651 30.5055 104.281 29.5123 104.281H27.7551V102.009H29.5696C29.9134 102.009 30.219 102.123 30.4291 102.333C30.6392 102.543 30.7538 102.83 30.7347 103.155V103.135Z" fill="#4E261E"/>
<path d="M36.14 102.925C36.14 102.925 35.9872 102.983 35.9872 103.078V103.46C35.6434 103.097 35.1468 102.887 34.5738 102.887C33.3896 102.887 32.4919 103.785 32.4919 104.969C32.4919 106.153 33.3896 107.07 34.5738 107.07C35.1277 107.07 35.6243 106.86 35.9872 106.478V106.86C35.9872 106.86 36.0445 107.013 36.14 107.013H36.522C36.522 107.013 36.6748 106.955 36.6748 106.86V103.059C36.6748 103.059 36.6175 102.906 36.522 102.906H36.14V102.925ZM33.1795 104.969C33.1795 104.129 33.7716 103.537 34.5929 103.537C35.5861 103.537 36.0445 104.281 36.0445 104.988C36.0445 105.37 35.9108 105.714 35.6816 105.981C35.4142 106.268 35.0513 106.421 34.5929 106.421C33.7716 106.421 33.1795 105.809 33.1795 104.969Z" fill="#4E261E"/>
<path d="M42.7295 102.849C42.1374 102.849 41.6217 103.135 41.3352 103.594C41.0678 103.116 40.5521 102.849 39.9218 102.849C39.4825 102.849 39.1005 103.002 38.814 103.269V103.059C38.814 103.059 38.7376 102.925 38.6612 102.925H38.2983C38.2983 102.925 38.1455 102.983 38.1455 103.078V106.879C38.1455 106.879 38.2028 107.032 38.2983 107.032H38.6803C38.6803 107.032 38.8331 106.975 38.8331 106.879V104.625C38.8331 103.976 39.2724 103.498 39.9027 103.498C40.533 103.498 40.9723 103.957 40.9723 104.625V106.879C40.9723 106.879 41.0296 107.032 41.1251 107.032H41.5071C41.5071 107.032 41.6599 106.975 41.6599 106.879V104.625C41.6599 103.957 42.0992 103.498 42.7295 103.498C43.3598 103.498 43.7991 103.938 43.7991 104.606V106.879C43.7991 106.879 43.8564 107.032 43.9519 107.032H44.3339C44.3339 107.032 44.4867 106.975 44.4867 106.879V104.606C44.4867 103.575 43.78 102.868 42.7486 102.868L42.7295 102.849Z" fill="#4E261E"/>
<path d="M49.4144 102.925C49.4144 102.925 49.2617 102.983 49.2617 103.078V103.46C48.9179 103.097 48.4213 102.887 47.8483 102.887C46.6641 102.887 45.7664 103.785 45.7664 104.969C45.7664 106.153 46.6641 107.07 47.8483 107.07C48.4022 107.07 48.8988 106.86 49.2617 106.478V106.86C49.2617 106.86 49.3189 107.013 49.4144 107.013H49.7965C49.7965 107.013 49.9493 106.955 49.9493 106.86V103.059C49.9493 103.059 49.892 102.906 49.7965 102.906H49.4144V102.925ZM46.454 104.969C46.454 104.129 47.0461 103.537 47.8674 103.537C48.8606 103.537 49.319 104.281 49.319 104.988C49.319 105.37 49.1853 105.714 48.9561 105.981C48.6887 106.268 48.3258 106.421 47.8674 106.421C47.0461 106.421 46.454 105.809 46.454 104.969Z" fill="#4E261E"/>
<path d="M54.858 101.34C54.858 101.34 54.7052 101.397 54.7052 101.493V103.441C54.3614 103.078 53.8648 102.868 53.2727 102.868C52.0503 102.868 51.229 103.708 51.229 104.969C51.229 106.23 52.0503 107.07 53.2727 107.07C53.8266 107.07 54.3614 106.841 54.7052 106.459V106.86C54.7052 106.86 54.7625 107.013 54.858 107.013H55.2209C55.2209 107.013 55.3737 106.955 55.3737 106.86V101.474C55.3737 101.474 55.3164 101.321 55.2209 101.321H54.858V101.34ZM54.7052 104.95C54.7052 105.809 54.1322 106.402 53.2918 106.402C52.6042 106.402 51.8784 106.02 51.8784 104.95C51.8784 103.88 52.6042 103.498 53.2918 103.498C54.1131 103.498 54.7052 104.11 54.7052 104.95Z" fill="#4E261E"/>
<path d="M60.3587 102.925C60.3587 102.925 60.2059 102.983 60.2059 103.078V103.46C59.8621 103.097 59.3655 102.887 58.7925 102.887C57.6083 102.887 56.7297 103.785 56.7297 104.969C56.7297 106.153 57.6274 107.07 58.7925 107.07C59.3464 107.07 59.843 106.86 60.2059 106.478V106.86C60.2059 106.86 60.2632 107.013 60.3587 107.013H60.7407C60.7407 107.013 60.8935 106.955 60.8935 106.86V103.059C60.8935 103.059 60.8362 102.906 60.7407 102.906H60.3587V102.925ZM57.3982 104.969C57.3982 104.129 57.9903 103.537 58.8116 103.537C59.8048 103.537 60.2632 104.281 60.2632 104.988C60.2632 105.37 60.1295 105.714 59.9003 105.981C59.6329 106.268 59.27 106.421 58.8116 106.421C57.9903 106.421 57.3982 105.809 57.3982 104.969Z" fill="#4E261E"/>
<path d="M64.236 102.849C63.7585 102.849 63.3384 103.021 63.0328 103.326V103.078C63.0328 103.078 62.9755 102.925 62.88 102.925H62.517C62.517 102.925 62.3643 102.983 62.3643 103.078V106.879C62.3643 106.879 62.4215 107.032 62.517 107.032H62.8991C62.8991 107.032 63.0519 106.975 63.0519 106.879V104.759C63.0519 104.052 63.5484 103.517 64.236 103.517C64.618 103.517 64.9236 103.632 65.1146 103.823C65.3247 104.033 65.4203 104.32 65.4203 104.683V106.86C65.4203 106.86 65.4776 107.013 65.5731 107.013H65.9551C65.9551 107.013 66.1079 106.955 66.1079 106.86V104.663C66.1079 103.556 65.3821 102.849 64.2552 102.849H64.236Z" fill="#4E261E"/>
<path d="M71.6851 104.052L74.2827 101.627C74.2827 101.627 74.3209 101.569 74.3209 101.531V101.493C74.3209 101.493 74.2636 101.34 74.1681 101.34H73.6715C73.6715 101.34 73.5951 101.34 73.576 101.378L71.2076 103.594V101.474C71.2076 101.474 71.1503 101.321 71.0548 101.321H70.6346C70.6346 101.321 70.4818 101.378 70.4818 101.474V106.841C70.4818 106.841 70.5391 106.994 70.6346 106.994H71.0548C71.0548 106.994 71.2076 106.936 71.2076 106.841V104.53L73.8052 106.955C73.8052 106.955 73.8625 106.994 73.9007 106.994H74.4164C74.4164 106.994 74.5692 106.898 74.5692 106.822C74.5692 106.784 74.5692 106.745 74.531 106.726L71.6851 104.052Z" fill="#4E261E"/>
<path d="M78.8094 102.925C78.8094 102.925 78.6566 102.983 78.6566 103.078V103.46C78.3128 103.097 77.8162 102.887 77.2432 102.887C76.059 102.887 75.1804 103.785 75.1804 104.969C75.1804 106.153 76.0781 107.07 77.2432 107.07C77.7971 107.07 78.2937 106.86 78.6566 106.478V106.86C78.6566 106.86 78.7139 107.013 78.8094 107.013H79.1914C79.1914 107.013 79.3442 106.955 79.3442 106.86V103.059C79.3442 103.059 79.2869 102.906 79.1914 102.906H78.8094V102.925ZM75.8298 104.969C75.8298 104.129 76.4219 103.537 77.2432 103.537C78.2364 103.537 78.6757 104.281 78.6757 104.988C78.6757 105.37 78.542 105.714 78.3128 105.981C78.0454 106.268 77.6825 106.421 77.2241 106.421C76.4028 106.421 75.8107 105.809 75.8107 104.969H75.8298Z" fill="#4E261E"/>
<path d="M82.6294 102.887C82.171 102.887 81.7508 103.04 81.4643 103.307V103.059C81.4643 103.059 81.3879 102.925 81.3115 102.925H80.9486C80.9486 102.925 80.7958 102.983 80.7958 103.078V106.879C80.7958 106.879 80.8531 107.032 80.9486 107.032H81.3306C81.3306 107.032 81.4834 106.975 81.4834 106.879V104.663C81.4834 104.033 81.98 103.537 82.5912 103.537C82.8013 103.537 82.9923 103.594 83.1642 103.689C83.2024 103.708 83.2406 103.708 83.2788 103.689C83.317 103.689 83.3552 103.651 83.3743 103.613L83.5462 103.307C83.5462 103.307 83.5462 103.155 83.4889 103.116C83.2215 102.944 82.935 102.868 82.6485 102.868L82.6294 102.887Z" fill="#4E261E"/>
<path d="M86.4685 102.849C85.2843 102.849 84.3866 103.747 84.3866 104.95C84.3866 106.153 85.2461 107.051 86.4685 107.051C87.1752 107.051 87.8437 106.745 88.2257 106.268C88.2639 106.211 88.2639 106.115 88.2066 106.077L87.9392 105.867C87.9392 105.867 87.8628 105.829 87.8246 105.829C87.7864 105.829 87.7482 105.848 87.7291 105.886C87.4999 106.191 86.9842 106.402 86.4685 106.402C85.8573 106.402 85.227 106.058 85.0933 105.275H88.3594C88.3594 105.275 88.4931 105.217 88.4931 105.141C88.5695 104.453 88.3976 103.88 88.0347 103.46C87.6718 103.059 87.1179 102.83 86.4685 102.83V102.849ZM85.0742 104.663C85.2079 103.957 85.7427 103.498 86.4494 103.498C87.2707 103.498 87.7673 103.938 87.8437 104.663H85.0742Z" fill="#4E261E"/>
<path d="M91.7973 102.849C90.6131 102.849 89.7155 103.747 89.7155 104.95C89.7155 106.153 90.5749 107.051 91.7973 107.051C92.504 107.051 93.1725 106.745 93.5545 106.268C93.5927 106.211 93.5928 106.115 93.5355 106.077L93.2681 105.867C93.2681 105.867 93.1916 105.829 93.1534 105.829C93.1152 105.829 93.0771 105.848 93.058 105.886C92.8288 106.191 92.313 106.402 91.7973 106.402C91.1861 106.402 90.5558 106.058 90.4221 105.275H93.6882C93.6882 105.275 93.8219 105.217 93.8219 105.141C93.8983 104.453 93.7264 103.88 93.3635 103.46C93.0006 103.059 92.4467 102.83 91.7973 102.83V102.849ZM90.4031 104.663C90.5368 103.957 91.0715 103.498 91.7782 103.498C92.5995 103.498 93.0961 103.938 93.1725 104.663H90.4031Z" fill="#4E261E"/>
<path d="M99.743 102.849C99.1509 102.849 98.6352 103.135 98.3487 103.594C98.0813 103.116 97.5656 102.849 96.9353 102.849C96.496 102.849 96.114 103.002 95.8275 103.269V103.059C95.8275 103.059 95.7511 102.925 95.6747 102.925H95.3309C95.3309 102.925 95.1781 102.983 95.1781 103.078V106.879C95.1781 106.879 95.2354 107.032 95.3309 107.032H95.7129C95.7129 107.032 95.8657 106.975 95.8657 106.879V104.625C95.8657 103.976 96.305 103.498 96.9353 103.498C97.5656 103.498 98.0049 103.957 98.0049 104.625V106.879C98.0049 106.879 98.0622 107.032 98.1577 107.032H98.5397C98.5397 107.032 98.6925 106.975 98.6925 106.879V104.625C98.6925 103.957 99.1318 103.498 99.7812 103.498C100.431 103.498 100.851 103.938 100.851 104.606V106.879C100.851 106.879 100.908 107.032 101.004 107.032H101.386C101.386 107.032 101.538 106.975 101.538 106.879V104.606C101.538 103.575 100.832 102.868 99.8003 102.868L99.743 102.849Z" fill="#4E261E"/>
<path fill-rule="evenodd" clip-rule="evenodd" d="M72.5254 76.1853C72.6018 77.8279 70.6727 78.3245 69.8323 79.3941C69.7177 79.0312 70.0042 78.1717 70.2525 77.847C69.8323 76.9493 70.4435 75.4022 71.3985 75.364C71.5895 75.364 71.8187 75.5168 71.7996 75.7842C71.7996 76.319 71.5322 76.7201 71.3794 77.0639C71.8187 76.9111 72.2389 76.4909 72.5254 76.2044V76.1853ZM70.7682 77.0066C70.8828 77.1021 71.0547 77.1403 71.2839 77.1212C71.2266 76.8729 71.0547 76.51 70.8637 76.6055C70.73 76.6819 70.6727 76.8347 70.7491 77.0257L70.7682 77.0066Z" fill="#4E261E"/>
<path d="M47.6954 70.8946C47.6954 70.8946 44.6012 76.1853 47.237 76.4336C48.383 76.5482 48.383 74.3899 48.383 74.3899C48.383 74.3899 47.9437 75.6505 47.0842 75.3258C46.1101 74.9438 47.6954 70.9137 47.6954 70.9137V70.8946Z" fill="#4E261E"/>
<path d="M78.4273 57.6392C78.4273 57.6392 75.3331 62.9299 77.9689 63.1782C79.1149 63.2928 79.1149 61.1345 79.1149 61.1345C79.1149 61.1345 78.6756 62.3951 77.8161 62.0704C76.842 61.7075 78.4273 57.6583 78.4273 57.6583V57.6392Z" fill="#4E261E"/>
<path d="M35.204 89.9182C35.204 89.9182 32.1098 95.2089 34.7456 95.4572C35.8916 95.5718 35.8916 93.4135 35.8916 93.4135C35.8916 93.4135 35.4523 94.6741 34.5928 94.3494C33.6187 93.9865 35.204 89.9373 35.204 89.9373V89.9182Z" fill="#4E261E"/>
<path d="M88.1874 83.3287C88.1874 83.3287 85.0932 88.6194 87.729 88.8677C88.875 88.9823 88.875 86.824 88.875 86.824C88.875 86.824 88.4357 88.0846 87.5762 87.7599C86.6021 87.397 88.1874 83.3478 88.1874 83.3478V83.3287Z" fill="#4E261E"/>
<path d="M34.5928 69.6722C34.5928 69.6722 34.1153 67.4566 33.1985 66.96C33.1985 66.96 32.9693 67.3802 32.8738 67.3802C32.7592 67.3802 31.7278 66.2724 32.2626 65.6994C32.7974 65.1264 33.9625 66.2724 34.5164 67.8386C34.5164 67.8386 35.5478 65.0118 36.1208 64.9927C36.7129 64.9736 37.114 66.2342 37.114 66.2342C37.114 66.2342 36.2927 65.6994 36.0444 65.9477C35.8152 66.196 34.822 68.3734 34.5928 69.6722Z" fill="#4E261E"/>
<path d="M98.3677 69.3093C98.3677 69.3093 97.8902 67.0937 96.9734 66.6162C96.9734 66.6162 96.7442 67.0364 96.6487 67.0364C96.5341 67.0364 95.5027 65.9286 96.0375 65.3556C96.5723 64.7826 97.7374 65.9286 98.2913 67.4948C98.2913 67.4948 99.3227 64.668 99.8957 64.6489C100.488 64.6298 100.889 65.8904 100.889 65.8904C100.889 65.8904 100.048 65.3365 99.8193 65.6039C99.571 65.8522 98.5969 68.0296 98.3486 69.3284L98.3677 69.3093Z" fill="#4E261E"/>
<path d="M37.5151 85.0286L38.0881 83.8635C38.0881 83.8635 39.8262 85.2578 38.3173 88.6958C38.3173 88.6958 39.1768 85.4297 37.496 85.0477L37.5151 85.0286Z" fill="#4E261E"/>
<path d="M51.8973 62.1086L52.4894 60.9435C52.4894 60.9435 54.2084 62.3187 52.7186 65.7758C52.7186 65.7758 53.5781 62.5097 51.8973 62.1086Z" fill="#4E261E"/>
<path fill-rule="evenodd" clip-rule="evenodd" d="M52.3558 72.0406C54.686 70.7418 56.1376 69.5385 56.7106 68.4498C56.9971 68.0678 57.2645 67.7813 57.4937 67.6094C57.9139 68.1633 58.315 68.1824 58.697 67.6476C58.7734 67.5903 58.8307 67.4566 58.8689 67.2656C58.0858 67.3802 57.6656 67.1892 57.6656 66.7117C57.6656 65.5275 57.9139 64.9545 58.4869 64.9927C58.8307 64.9927 59.1554 64.9927 59.5183 65.1264C58.2577 65.5657 57.8375 65.9477 58.2768 66.2342C58.5633 66.3297 58.9453 66.3297 59.461 66.2342C59.8621 65.7949 60.2823 65.2983 60.7216 64.7253C60.7216 65.0309 60.7216 65.3556 60.7216 65.6612C60.1486 66.3297 59.7093 66.96 59.4037 67.5521C58.888 68.488 58.5251 68.8891 58.2768 68.7745C57.8757 68.7745 57.5319 68.7172 57.2072 68.6408C55.7365 70.78 54.113 71.9069 52.3367 72.0597L52.3558 72.0406Z" fill="#4E261E"/>
<path d="M75.4095 53.3608L62.2305 60.0458L63.3765 58.7661L76.5555 52.0811L75.4095 53.3608Z" fill="#4E261E"/>
<path d="M94.4332 59.3964L81.2542 66.0814L82.381 64.7826L95.5792 58.0976L94.4332 59.3964Z" fill="#4E261E"/>
<path fill-rule="evenodd" clip-rule="evenodd" d="M76.9565 92.0192H58.334C58.1048 92.0192 57.9329 91.981 57.8183 91.8664C57.7228 91.79 57.7037 91.6754 57.7037 91.6181C57.7037 91.408 57.8947 91.1597 58.3531 91.1597H62.1158C62.3641 91.1597 62.5551 90.9687 62.5551 90.7204C62.5551 90.4721 62.3641 90.2811 62.1158 90.2811H58.3531C57.379 90.2811 56.8442 90.9687 56.8442 91.599C56.8442 91.9428 56.997 92.2675 57.2453 92.4967C57.4363 92.6686 57.7801 92.8596 58.334 92.8596H76.9565C77.6823 92.8596 78.2935 93.318 78.4654 93.9865H54.9533V93.1652C54.9533 92.936 54.7623 92.7259 54.514 92.7259C54.2657 92.7259 54.0747 92.9169 54.0747 93.1652V95.1134C54.0747 96.5077 52.9096 96.6032 52.5467 96.6032H50.2929C50.0446 96.6032 49.8536 96.7942 49.8536 97.0425C49.8536 97.2908 50.0446 97.4818 50.2929 97.4818H52.5467C53.7309 97.4818 54.9533 96.756 54.9533 95.1134V94.846H78.9811C79.2294 94.846 79.4204 94.655 79.4204 94.4067C79.4204 93.0506 78.3508 91.981 76.9756 91.981L76.9565 92.0192Z" fill="#4E261E"/>
<path fill-rule="evenodd" clip-rule="evenodd" d="M51.4198 90.434C51.1715 90.434 50.9805 90.625 50.9805 90.8733C50.9805 92.4204 50.9805 92.6687 49.2042 92.6687C49.2042 92.6687 49.2042 92.6687 49.1851 92.6687C49.166 92.6687 49.1851 92.6687 49.166 92.6687H48.02C48.02 92.6687 48.02 92.6305 48.02 92.6114C48.02 91.5609 47.1605 90.7014 46.11 90.7014C45.0595 90.7014 44.2 91.5609 44.2 92.6114L43.3978 92.6305C42.3282 92.6305 41.6788 93.2799 41.6788 94.3877V97.0617C41.6788 97.31 41.8698 97.501 42.1181 97.501C42.3664 97.501 42.5574 97.31 42.5574 97.0617V94.3877C42.5574 93.7765 42.8248 93.49 43.4169 93.49H44.4483C44.773 94.0821 45.4033 94.5023 46.11 94.5023C46.8167 94.5023 47.4279 94.1012 47.7526 93.5473H49.1469C49.1469 93.5473 49.1469 93.5473 49.166 93.5473C49.1851 93.5473 49.166 93.5473 49.1851 93.5473C51.5726 93.5473 51.84 92.726 51.84 90.8733C51.84 90.625 51.649 90.434 51.4007 90.434H51.4198ZM46.1291 93.6237C45.5561 93.6237 45.0977 93.1653 45.0977 92.5923C45.0977 92.0193 45.5561 91.5609 46.1291 91.5609C46.7021 91.5609 47.1605 92.0193 47.1605 92.5923C47.1605 93.1653 46.7021 93.6237 46.1291 93.6237Z" fill="#4E261E"/>
<path fill-rule="evenodd" clip-rule="evenodd" d="M49.7008 94.8269C49.7008 95.1325 49.4525 95.3617 49.166 95.3617C48.8795 95.3617 48.6312 95.1134 48.6312 94.8269C48.6312 94.5404 48.8795 94.2921 49.166 94.2921C49.4525 94.2921 49.7008 94.5404 49.7008 94.8269Z" fill="#4E261E"/>
<path fill-rule="evenodd" clip-rule="evenodd" d="M51.2097 94.8269C51.2097 95.1325 50.9614 95.3617 50.6558 95.3617C50.3502 95.3617 50.121 95.1134 50.121 94.8269C50.121 94.5404 50.3693 94.2921 50.6558 94.2921C50.9423 94.2921 51.2097 94.5404 51.2097 94.8269Z" fill="#4E261E"/>
<path d="M70.5431 60.9231L68.3544 63.1103L70.2715 65.0288L72.4602 62.8416L70.5431 60.9231Z" fill="#4E261E"/>
<path d="M96.8588 76.4336C96.8588 74.6955 96.8588 72.7473 95.9229 71.2002C94.2039 68.3734 88.7794 68.3543 85.9144 68.5071C85.7616 68.5071 85.9717 74.5427 85.9144 74.5427C86.1627 74.5427 86.4302 74.5236 86.6976 74.5045C86.3729 75.6505 85.9145 76.7392 85.2651 77.7324C84.2528 79.3177 82.4192 79.5278 80.6429 79.2222C80.853 78.611 81.1203 77.6178 81.1586 76.128C81.2159 74.0843 81.6169 71.4294 80.4518 69.6149C78.5227 66.6544 73.0219 67.3802 70.2333 68.1633C65.2482 69.5767 60.9507 73.7596 57.952 77.9616C57.2453 77.7133 55.8128 76.3381 55.2971 74.791C55.2207 75.8988 54.2658 77.7133 52.9479 79.0503C51.4199 80.5974 49.3762 80.9794 47.3516 80.7311C44.0091 80.3491 41.2204 78.0571 40.0744 74.9438C40.0744 74.9247 40.0744 74.9056 40.0744 74.8865C40.3036 74.027 40.5902 73.1866 40.9149 72.3653C42.3856 68.5262 45.0596 65.1837 47.6763 62.0704C52.7187 56.0348 60.435 49.3498 64.2359 42.4547C68.8963 33.9743 67.6931 26.4489 64.7517 20.165C64.8663 21.5593 64.7135 23.7367 64.7517 26.2006C65.3056 26.7927 66.528 28.0915 66.528 28.7027C66.528 34.9293 64.1977 37.3359 56.4622 46.0837C50.0637 53.3226 42.08 59.8739 39.9026 69.6722C39.0049 73.6832 38.9093 79.9862 41.3732 83.4242C44.1618 87.2824 50.3121 88.1801 53.4827 84.4938C54.2849 83.5579 54.8006 82.3355 55.2017 81.1704C55.2781 80.9603 55.3163 80.8075 55.3163 80.8075C55.3163 80.8075 55.3926 80.9985 55.7174 81.5906C56.5196 82.9658 57.57 83.8253 57.8756 84.1118C60.9125 86.6903 65.5539 86.8622 69.2975 86.6139C72.2579 86.4229 75.1421 85.4297 77.3386 83.7107C78.5992 84.3028 81.4451 84.914 83.9854 84.0927C86.5257 83.2714 86.8312 80.139 87.1559 78.229C87.2705 77.6178 87.3088 77.083 87.3088 77.083C87.3088 77.083 87.4616 77.4841 87.6717 78.0953C88.1301 79.5851 88.9896 80.8839 90.0592 81.9917C91.6827 83.7107 94.2229 83.8826 95.7509 82.049C96.916 80.6547 96.8588 78.1335 96.8588 76.4718V76.4336ZM61.4856 79.8525C62.9563 78.42 64.5607 77.1403 66.2415 76.0516C69.0874 74.1989 77.0521 71.9069 80.0317 75.0011C78.2745 77.7706 74.7028 79.6424 71.7422 80.2536C68.438 80.9221 64.6944 80.9603 61.4856 79.8525ZM92.3512 77.2358C91.1479 77.0448 89.7727 75.8606 88.7604 74.5045C91.0906 74.6191 93.6882 75.0966 95.2162 76.4718C94.5286 77.1021 93.5927 77.4268 92.3512 77.2358Z" fill="#4E261E"/>
<path d="M104.709 79.4324C104.709 75.7461 103.544 72.2126 101.328 69.2139C101.328 70.7992 101.252 72.9766 101.328 75.2495C102.722 76.4528 103.888 79.4515 103.983 80.5975C103.83 80.9413 103.391 82.5457 98.4059 85.8118C95.6746 87.5881 82.0181 96.2786 81.7316 88.2948C81.7316 87.8173 81.7316 87.4162 81.6934 87.7409C81.3878 90.7014 80.7957 95.8011 83.2596 97.31C87.1751 99.7166 95.3308 93.7192 98.4059 91.8474C101.118 90.1857 103.525 88.6577 104.365 85.4107C104.843 83.5198 104.728 81.3615 104.728 79.4515L104.709 79.4324Z" fill="#4E261E"/>
<path d="M36.8084 73.8742C36.7702 74.3326 36.732 74.6955 36.5983 75.1921C36.4455 75.7651 35.968 78.1335 34.4209 79.4896C32.8929 80.8266 30.5436 80.9603 28.7482 80.1963C27.0292 79.4514 25.9023 77.8661 25.2529 76.1853C25.2529 74.4663 27.1247 71.2766 28.2898 69.3093C28.3662 66.9027 28.2707 65.9095 28.2898 63.2928C25.463 68.0487 24.5271 71.8114 24.5462 77.1785C24.5462 80.5974 25.1765 84.1309 28.3662 86.0409C31.7087 88.0655 35.5096 85.5061 36.5028 82.1636C37.2477 79.6233 36.8848 76.4718 36.7893 73.8933L36.8084 73.8742Z" fill="#4E261E"/>
<path d="M31.6469 71.8533L29.459 74.0413L31.3768 75.9591L33.5647 73.7711L31.6469 71.8533Z" fill="#4E261E"/>
<g style="mix-blend-mode:multiply" opacity="0.6">
<path d="M25.272 76.1853C25.272 75.2876 25.7877 73.9888 26.4371 72.6709C26.0551 72.0979 25.463 71.3339 25.081 71.2957C24.9473 71.9833 24.8327 72.69 24.7563 73.4158C24.9091 75.555 25.2911 76.1853 25.2911 76.1853H25.272Z" fill="#4E261E"/>
</g>
<path d="M107.213 63.4301V61.7426L110.448 60.1434L117.679 61.2904L131.748 61.3787L139.158 60L142.213 61.5441V63.4522L133.449 65.9559L115.865 66L107.213 63.4301Z" fill="#BFBFBF"/>
<path d="M136.912 56.5483V43.8216C136.912 40.3679 136.534 40.1124 135.657 39.224C136.979 36.6809 135.657 33.5714 135.657 33.5714C135.657 33.5714 136.623 34.4487 137.167 35.6592C137.712 36.8697 137.378 38.3356 137.145 39.1019C137.645 39.6016 137.878 41.1897 137.878 41.9893V56.3706L137.234 56.4928L136.912 56.5483Z" fill="#D6D6D6"/>
<path d="M127.617 56.5595V42.278C127.617 39.9126 125.418 39.3129 125.418 39.3129C125.418 39.3129 126.695 39.0575 126.884 37.114C127.073 35.1706 124.929 33.3937 124.929 33.3937C124.929 33.3937 128.383 35.4816 128.405 36.7031C128.439 37.9247 127.806 38.9575 127.806 38.9575C127.806 38.9575 129.183 39.6794 129.183 41.956V56.7816H127.606V56.5484L127.617 56.5595Z" fill="#D6D6D6"/>
<path d="M114.168 33.5825C114.168 33.5825 116.867 35.3816 115.612 39.0019C116.389 40.279 116.411 40.4456 116.411 41.6561V56.8149L115.079 56.7815V41.4784C115.079 40.6344 114.857 39.2573 114.324 39.0908C114.324 39.0908 116.178 36.9141 114.168 33.5825Z" fill="#D6D6D6"/>
<path d="M132.07 19.2566C132.07 19.2566 133.98 16.1693 131.892 13.2931C129.804 10.4168 125.407 5.49712 125.407 5.49712L124.185 5.4527C124.185 5.4527 118.699 9.32846 116.7 11.283C114.701 13.2375 114.09 15.3698 114.09 16.5469C114.09 17.7241 115.312 19.9007 115.312 19.9007L117.4 19.2455H132.07V19.2566Z" fill="#C59F59"/>
<path d="M110.048 43.4552L110.07 60.302C110.07 60.5574 110.248 60.7684 110.503 60.8128L117.866 62.1565C117.866 62.1565 117.933 62.1565 117.955 62.1565H118.033C118.322 62.1565 118.555 61.9233 118.555 61.6346C118.555 61.3459 118.322 61.1126 118.033 61.1126H117.955C117.955 61.1126 118.022 61.1126 118.044 61.1126L110.681 59.7689C110.925 59.8133 111.114 60.0354 111.114 60.2797L111.092 43.433C111.092 43.1442 110.859 42.911 110.57 42.911C110.281 42.911 110.048 43.1442 110.048 43.433V43.4552Z" fill="#4E261E"/>
<path d="M110.026 30.0066V41.3007H110.037C110.037 41.5895 110.27 41.8227 110.559 41.8227C110.848 41.8227 111.081 41.5895 111.081 41.3007V30.0066H111.07C111.07 29.7179 110.837 29.4847 110.548 29.4847C110.259 29.4847 110.026 29.7179 110.026 30.0066Z" fill="#4E261E"/>
<path d="M112.214 47.3309V41.6339C112.214 39.9458 112.858 39.2462 112.869 39.2351C112.847 39.2573 112.825 39.2684 112.802 39.2795C112.847 39.2573 112.88 39.224 112.902 39.1907C112.947 39.1241 112.969 39.0463 112.969 38.9686C112.969 38.9353 112.969 38.8464 112.902 38.7576C112.924 38.7909 112.947 38.8242 112.958 38.8575C112.902 38.7021 112.636 37.9469 112.636 36.9474C112.636 35.3927 114.079 33.8934 114.368 33.6047C114.268 33.7047 114.102 33.7047 114.002 33.6047C114.401 34.0045 115.723 35.4371 115.723 36.9474C115.723 37.9802 115.445 38.7465 115.412 38.8353C115.412 38.8131 115.434 38.7909 115.456 38.7687C115.39 38.8464 115.39 38.9353 115.39 38.9686C115.39 39.0463 115.412 39.113 115.456 39.1907C115.479 39.224 115.512 39.2573 115.545 39.2684C115.523 39.2573 115.512 39.2462 115.49 39.224C115.49 39.224 116.145 39.9347 116.145 41.6228V56.8704C116.145 56.7926 116.178 56.726 116.234 56.6816C116.289 56.6372 116.356 56.6038 116.434 56.615L115.468 56.5261C115.323 56.515 115.201 56.615 115.179 56.7593C115.168 56.9037 115.268 57.0259 115.412 57.037L116.378 57.1258C116.456 57.1258 116.523 57.1036 116.578 57.0592C116.634 57.0036 116.667 56.937 116.667 56.8704V41.6228C116.667 39.7237 115.912 38.8797 115.801 38.8131C115.834 38.8353 115.867 38.8575 115.89 38.902C115.89 38.902 115.912 38.9353 115.912 38.9797C115.912 38.9797 115.912 39.0463 115.856 39.113C115.878 39.0907 115.89 39.0685 115.901 39.0352C115.934 38.9464 116.245 38.0913 116.245 36.9696C116.245 35.2594 114.801 33.6936 114.368 33.2604C114.268 33.1605 114.102 33.1605 114.002 33.2604C113.557 33.6936 112.114 35.2483 112.114 36.9696C112.114 38.0468 112.403 38.8797 112.458 39.0352C112.469 39.0685 112.491 39.1018 112.514 39.1241C112.458 39.0574 112.458 39.0019 112.458 38.9797C112.458 38.9464 112.469 38.9131 112.48 38.9131C112.502 38.8686 112.547 38.8464 112.58 38.8242C112.469 38.8797 111.703 39.7238 111.703 41.645V47.342C111.703 47.4864 111.814 47.6085 111.969 47.6085C112.125 47.6085 112.236 47.4864 112.236 47.342L112.214 47.3309Z" fill="#4E261E"/>
<path d="M114.357 56.4262L111.981 56.2152C112.114 56.2263 112.214 56.3373 112.214 56.4706V48.3637C112.214 48.2193 112.103 48.0972 111.947 48.0972C111.792 48.0972 111.681 48.2193 111.681 48.3637V56.4706C111.681 56.6038 111.781 56.7149 111.914 56.726L114.29 56.937C114.435 56.9481 114.557 56.8482 114.579 56.7038C114.59 56.5594 114.49 56.4373 114.346 56.4151L114.357 56.4262Z" fill="#4E261E"/>
<path d="M139.81 35.2261V29.8733C139.81 29.5846 139.577 29.3514 139.288 29.3514C139 29.3514 138.766 29.5846 138.766 29.8733V35.2261C138.766 35.5148 139 35.7481 139.288 35.7481C139.577 35.7481 139.81 35.5148 139.81 35.2261Z" fill="#4E261E"/>
<path d="M131.803 62.1676H131.892C131.892 62.1676 131.959 62.1676 131.981 62.1676L139.355 60.8239C139.599 60.7794 139.788 60.5573 139.788 60.313L139.81 37.5249C139.81 37.2361 139.577 37.0029 139.288 37.0029C139 37.0029 138.766 37.2361 138.766 37.5249L138.744 60.313C138.744 60.0576 138.922 59.8466 139.177 59.8022L131.803 61.1459C131.803 61.1459 131.87 61.1459 131.892 61.1459H131.803C131.515 61.1459 131.281 61.3791 131.281 61.6679C131.281 61.9566 131.515 62.1898 131.803 62.1898V62.1676Z" fill="#4E261E"/>
<path d="M133.691 43.2774V41.6338C133.691 39.968 134.335 39.2462 134.347 39.2351C134.324 39.2573 134.291 39.2795 134.258 39.2906C134.313 39.2684 134.369 39.224 134.391 39.1685C134.413 39.1351 134.447 39.0685 134.447 38.9797C134.447 38.9464 134.447 38.8464 134.369 38.7687C134.391 38.802 134.413 38.8353 134.424 38.8686C134.369 38.7132 134.113 37.958 134.113 36.9585C134.113 35.3927 135.546 33.9045 135.835 33.6158C135.735 33.7157 135.568 33.7157 135.468 33.6158C135.868 34.0156 137.19 35.4482 137.19 36.9585C137.19 38.0357 136.879 38.8353 136.879 38.8464C136.879 38.8353 136.89 38.8131 136.901 38.802C136.856 38.8797 136.856 38.9464 136.856 38.9797C136.856 39.0685 136.89 39.1574 136.945 39.224C136.945 39.224 136.967 39.2462 136.979 39.2573C136.979 39.2573 136.967 39.2462 136.956 39.2351C136.956 39.2351 137.612 39.968 137.612 41.6338V56.4817C137.612 56.3484 137.712 56.2374 137.845 56.2262L133.392 56.626C133.469 56.626 133.536 56.6483 133.591 56.6927C133.647 56.7482 133.68 56.8148 133.68 56.8815V44.7656C133.68 44.6212 133.558 44.5101 133.414 44.5101C133.269 44.5101 133.158 44.6323 133.158 44.7656V56.8815C133.158 56.9592 133.192 57.0258 133.247 57.0703C133.303 57.1147 133.369 57.148 133.447 57.1369L137.9 56.7371C138.034 56.726 138.134 56.6149 138.134 56.4817V41.6338C138.134 39.6571 137.323 38.8575 137.312 38.8464C137.312 38.8464 137.334 38.8686 137.345 38.8797C137.367 38.9019 137.378 38.9353 137.378 38.9797C137.378 38.9797 137.378 39.0241 137.345 39.0796C137.345 39.0685 137.356 39.0574 137.367 39.0352C137.367 39.0352 137.712 38.1579 137.712 36.9585C137.712 35.2483 136.279 33.6824 135.835 33.2493C135.735 33.1494 135.568 33.1494 135.468 33.2493C135.024 33.6824 133.591 35.2261 133.591 36.9585C133.591 38.0357 133.88 38.8686 133.936 39.0241C133.936 39.0574 133.969 39.0907 133.991 39.113C133.969 39.0907 133.936 39.0352 133.936 38.9797C133.936 38.9464 133.947 38.913 133.947 38.913V38.9242C133.98 38.8686 134.025 38.8242 134.08 38.802C133.902 38.8686 133.181 39.8015 133.181 41.6338V43.2774C133.181 43.4218 133.303 43.5329 133.436 43.5329C133.569 43.5329 133.702 43.4107 133.702 43.2774H133.691Z" fill="#4E261E"/>
<path d="M132.325 57.1591V29.6068C132.325 29.3181 132.092 29.0848 131.803 29.0848H118.033C117.744 29.0848 117.511 29.3181 117.511 29.6068V31.9611C117.511 32.2499 117.744 32.4831 118.033 32.4831C118.322 32.4831 118.555 32.2499 118.555 31.9611V29.6068C118.555 29.8955 118.322 30.1287 118.033 30.1287H131.803C131.515 30.1287 131.281 29.8955 131.281 29.6068V57.1591C131.281 57.4478 131.515 57.6811 131.803 57.6811C132.092 57.6811 132.325 57.4478 132.325 57.1591Z" fill="#4E261E"/>
<path d="M117.511 34.5043V61.6457C117.511 61.9344 117.744 62.1676 118.033 62.1676H131.803C132.092 62.1676 132.325 61.9344 132.325 61.6457V58.9915C132.325 58.7028 132.092 58.4696 131.803 58.4696C131.515 58.4696 131.281 58.7028 131.281 58.9915V61.6457C131.281 61.3569 131.515 61.1237 131.803 61.1237H118.033C118.322 61.1237 118.555 61.3569 118.555 61.6457V34.5043C118.555 34.2155 118.322 33.9823 118.033 33.9823C117.744 33.9823 117.511 34.2155 117.511 34.5043Z" fill="#4E261E"/>
<path d="M125.585 4.4088C125.585 4.58649 125.307 4.77528 124.918 4.77528C124.529 4.77528 124.263 4.57538 124.263 4.4088C124.263 4.24222 124.552 4.04233 124.918 4.04233C125.285 4.04233 125.585 4.24222 125.585 4.4088ZM124.918 3.26495C124.107 3.26495 123.474 3.76469 123.474 4.4088C123.474 5.05291 124.107 5.55266 124.918 5.55266C125.729 5.55266 126.362 5.05291 126.362 4.4088C126.362 3.76469 125.729 3.26495 124.918 3.26495Z" fill="#4E261E"/>
<path d="M125.529 2.46538C125.529 2.79854 125.262 3.07617 124.918 3.07617C124.574 3.07617 124.319 2.79854 124.319 2.46538C124.319 2.20995 124.796 1.29932 125.251 0.610788C125.185 0.721841 125.051 0.788477 124.929 0.788477C124.807 0.788477 124.674 0.721841 124.596 0.610788C125.051 1.29932 125.529 2.20995 125.529 2.46538ZM124.596 0.177681C124.352 0.555262 123.541 1.84348 123.541 2.46538C123.541 3.23164 124.163 3.85354 124.929 3.85354C125.696 3.85354 126.317 3.23164 126.317 2.46538C126.317 1.84348 125.507 0.555262 125.251 0.177681C125.174 0.0666276 125.051 0 124.929 0C124.807 0 124.674 0.0666276 124.596 0.177681Z" fill="#4E261E"/>
<path d="M130.071 8.30681L129.971 8.22908C128.538 7.17407 127.061 6.08575 125.862 4.89748C125.762 4.79753 125.629 4.742 125.496 4.742H124.363C124.23 4.742 124.096 4.79753 123.996 4.89748C122.808 6.08575 121.32 7.17407 119.899 8.22908C117.433 10.0392 115.101 11.7606 114.157 13.9705C113.158 16.336 114.213 18.6792 114.923 19.8675C115.068 20.1118 115.39 20.1895 115.645 20.0452C115.89 19.9008 115.967 19.5787 115.823 19.3233C115.079 18.0795 114.346 16.2138 115.123 14.3703C115.945 12.4269 118.166 10.7944 120.52 9.06198C121.986 7.98476 123.497 6.87423 124.74 5.63043C124.641 5.73038 124.507 5.78591 124.374 5.78591H125.507C125.373 5.78591 125.24 5.73038 125.14 5.63043C126.395 6.88534 127.905 7.99587 129.371 9.07308L129.471 9.15082C129.705 9.3174 130.027 9.27298 130.204 9.03977C130.371 8.80656 130.326 8.4845 130.093 8.30681H130.071Z" fill="#4E261E"/>
<path d="M134.924 19.8786C135.646 18.6903 136.701 16.336 135.702 13.9705C134.969 12.2492 133.381 10.8499 131.926 9.70608C131.704 9.5284 131.37 9.56171 131.193 9.79493C131.015 10.017 131.06 10.3502 131.282 10.5279C132.636 11.594 134.102 12.8822 134.746 14.3814C135.524 16.2249 134.791 18.1017 134.036 19.3455C133.891 19.5898 133.969 19.9119 134.213 20.0673C134.458 20.2117 134.78 20.134 134.935 19.8897L134.924 19.8786Z" fill="#4E261E"/>
<path d="M131.17 25.7644C131.57 25.7644 132.248 25.7755 132.67 25.7977L138.4 26.0531C139.022 26.0864 139.71 25.6866 139.999 25.1203L140.588 23.932C140.865 23.3767 140.799 22.5549 140.443 22.0663L139.544 20.8447C139.211 20.4005 138.555 19.9896 138.022 19.8785L132.97 18.9457C132.503 18.8569 131.792 18.8013 131.359 18.8013H118.455C118.022 18.8013 117.311 18.868 116.845 18.9457L111.792 19.8785C111.247 19.9785 110.592 20.4005 110.27 20.8336L109.371 22.0552C109.004 22.5438 108.949 23.3656 109.226 23.9209L109.815 25.098C110.104 25.6644 110.792 26.0642 111.414 26.0309L117.133 25.7866C117.422 25.7755 117.644 25.5312 117.633 25.2424C117.622 24.9537 117.378 24.7316 117.089 24.7427L111.359 24.987C111.148 24.9981 110.837 24.8204 110.737 24.6316L110.148 23.4545C110.048 23.2435 110.07 22.8437 110.204 22.6771L111.103 21.4555C111.27 21.2223 111.703 20.9558 111.98 20.9002L117.022 19.9674C117.422 19.9008 118.066 19.8341 118.444 19.8341H131.348C131.715 19.8341 132.37 19.8897 132.77 19.9674L137.811 20.9002C138.089 20.9558 138.522 21.2223 138.689 21.4555L139.588 22.6771C139.71 22.8548 139.744 23.2546 139.644 23.4545L139.055 24.6316C138.955 24.8204 138.655 24.9981 138.444 24.987L132.714 24.7316C132.281 24.7094 131.581 24.6983 131.159 24.6983C130.871 24.6983 130.637 24.9315 130.637 25.2202C130.637 25.5089 130.871 25.7422 131.159 25.7422L131.17 25.7644Z" fill="#4E261E"/>
<path d="M142.52 61.3014L139.477 59.8244C139.377 59.78 139.266 59.7578 139.155 59.78L131.781 61.1238C131.615 61.1571 131.47 61.2681 131.393 61.4236C131.326 61.5791 131.337 61.7679 131.426 61.9122L132.77 64.0111C132.925 64.2555 133.247 64.3221 133.492 64.1666C133.736 64.0111 133.803 63.6891 133.647 63.4448L132.303 61.3459C132.392 61.4902 132.414 61.679 132.337 61.8345C132.27 61.99 132.126 62.1121 131.948 62.1343L139.322 60.7906C139.211 60.8128 139.1 60.7906 139 60.7462L142.043 62.2232C142.298 62.3453 142.62 62.2343 142.742 61.9789C142.864 61.7234 142.765 61.4014 142.498 61.2792L142.52 61.3014Z" fill="#4E261E"/>
<path d="M142.242 61.5235L133.169 63.5003C133.025 63.5336 132.936 63.6669 132.97 63.8112C133.003 63.9556 133.136 64.0444 133.28 64.0111L142.354 62.0344C142.498 62.0011 142.587 61.8678 142.553 61.7234C142.52 61.5791 142.387 61.4902 142.242 61.5235Z" fill="#4E261E"/>
<path d="M141.298 64.4665L142.442 64.1333C142.664 64.0667 142.82 63.8668 142.82 63.6336V61.779C142.82 61.4902 142.587 61.257 142.298 61.257C142.009 61.257 141.776 61.4902 141.776 61.779V63.6336C141.776 63.4003 141.931 63.2004 142.154 63.1338L141.01 63.467C140.732 63.5447 140.577 63.8334 140.654 64.1111C140.732 64.3887 141.021 64.5442 141.298 64.4665Z" fill="#4E261E"/>
<path d="M132.714 63.8334L133.081 66.221C133.103 66.3654 133.192 66.4987 133.314 66.5764C133.436 66.6541 133.591 66.6764 133.736 66.643L139.71 64.9217C139.988 64.844 140.144 64.5552 140.066 64.2776C139.988 64 139.699 63.8445 139.422 63.9222L133.447 65.6436C133.591 65.5991 133.747 65.6214 133.869 65.7102C133.991 65.7879 134.08 65.9212 134.102 66.0656L133.736 63.6779C133.691 63.3892 133.425 63.2004 133.136 63.2448C132.847 63.2892 132.659 63.5558 132.703 63.8445L132.714 63.8334Z" fill="#4E261E"/>
<path d="M107.772 62.2454L110.814 60.7684C110.714 60.8128 110.603 60.835 110.492 60.8128L117.866 62.1566C117.7 62.1232 117.555 62.0122 117.478 61.8456C117.411 61.6901 117.422 61.5013 117.511 61.357L116.167 63.4559C116.012 63.7002 116.078 64.0222 116.323 64.1777C116.567 64.3332 116.889 64.2666 117.045 64.0222L118.388 61.9233C118.477 61.779 118.499 61.5902 118.422 61.4347C118.355 61.2792 118.211 61.1571 118.033 61.1238L110.659 59.78C110.548 59.7578 110.437 59.78 110.337 59.8244L107.294 61.3014C107.039 61.4236 106.928 61.7346 107.05 62.0011C107.172 62.2565 107.483 62.3676 107.749 62.2454H107.772Z" fill="#4E261E"/>
<path d="M107.494 62.0344L116.556 64.0111C116.7 64.0444 116.833 63.9556 116.867 63.8112C116.9 63.6669 116.811 63.5336 116.667 63.5003L107.605 61.5235C107.461 61.4902 107.327 61.5791 107.294 61.7234C107.261 61.8678 107.35 62.0011 107.494 62.0344Z" fill="#4E261E"/>
<path d="M133.669 63.4669L132.326 61.368C132.226 61.2126 132.059 61.1237 131.881 61.1237H117.955C117.778 61.1237 117.611 61.2126 117.511 61.368L116.167 63.4669C116.012 63.7113 116.078 64.0333 116.323 64.1888C116.567 64.3443 116.889 64.2776 117.045 64.0333L118.388 61.9344C118.288 62.0788 118.122 62.1787 117.944 62.1787H131.87C131.693 62.1787 131.526 62.0899 131.426 61.9344L132.77 64.0333C132.925 64.2776 133.247 64.3443 133.492 64.1888C133.736 64.0333 133.803 63.7113 133.647 63.4669H133.669Z" fill="#4E261E"/>
<path d="M116.101 63.678L115.734 66.0656C115.756 65.9212 115.845 65.788 115.967 65.6992C116.09 65.6214 116.245 65.5992 116.389 65.6325L107.683 63.1338C107.905 63.2004 108.06 63.4003 108.06 63.6336V61.779C108.06 61.4902 107.827 61.257 107.538 61.257C107.25 61.257 107.016 61.4902 107.016 61.779V63.6336C107.016 63.8668 107.172 64.0667 107.394 64.1333L116.101 66.632C116.245 66.6764 116.4 66.6542 116.523 66.5654C116.645 66.4876 116.734 66.3544 116.756 66.1989L117.122 63.8112C117.167 63.5225 116.967 63.256 116.689 63.2116C116.4 63.1671 116.134 63.367 116.09 63.6447L116.101 63.678Z" fill="#4E261E"/>
<path d="M120.454 66.6653H133.603C133.758 66.6653 133.902 66.5986 134.002 66.4876C134.102 66.3765 134.147 66.221 134.125 66.0656L133.758 63.6779C133.714 63.3892 133.447 63.2004 133.158 63.2448C132.87 63.2892 132.681 63.5558 132.725 63.8445L133.092 66.2321C133.069 66.0767 133.114 65.9323 133.214 65.8101C133.314 65.6991 133.458 65.6324 133.614 65.6324H120.465C120.176 65.6324 119.943 65.8657 119.943 66.1544C119.943 66.4431 120.176 66.6764 120.465 66.6764L120.454 66.6653Z" fill="#4E261E"/>
<path d="M116.1 63.6779L115.734 66.0656C115.712 66.221 115.756 66.3654 115.856 66.4876C115.956 66.5986 116.1 66.6653 116.256 66.6653H118.41C118.699 66.6653 118.932 66.4321 118.932 66.1433C118.932 65.8546 118.699 65.6214 118.41 65.6214H116.256C116.411 65.6214 116.556 65.688 116.656 65.7991C116.756 65.9101 116.8 66.0656 116.778 66.221L117.144 63.8334C117.189 63.5447 116.989 63.2781 116.711 63.2337C116.423 63.1893 116.156 63.3892 116.112 63.6668L116.1 63.6779Z" fill="#4E261E"/>
<path d="M117.322 64.6662C117.267 64.7329 117.233 64.7995 117.233 64.8883C117.233 65.0549 117.367 65.1993 117.544 65.1993C117.722 65.1993 117.866 65.0549 117.866 64.8883C117.866 64.7995 117.833 64.7218 117.766 64.6662C117.711 64.6107 117.633 64.5774 117.544 64.5774C117.456 64.5774 117.378 64.6107 117.322 64.6662Z" fill="#4E261E"/>
<path d="M118.555 64.6664C118.499 64.733 118.466 64.7996 118.466 64.8885C118.466 65.055 118.61 65.1994 118.777 65.1994C118.944 65.1994 119.099 65.055 119.099 64.8885C119.099 64.7996 119.066 64.7219 118.999 64.6664C118.944 64.6108 118.866 64.5775 118.777 64.5775C118.688 64.5775 118.61 64.6108 118.555 64.6664Z" fill="#4E261E"/>
<path d="M119.788 64.6664C119.721 64.733 119.688 64.7996 119.688 64.8885C119.688 65.055 119.832 65.1994 119.999 65.1994C120.165 65.1994 120.321 65.055 120.321 64.8885C120.321 64.7996 120.287 64.7219 120.221 64.6664C120.165 64.6108 120.088 64.5775 119.999 64.5775C119.91 64.5775 119.843 64.6108 119.777 64.6664H119.788Z" fill="#4E261E"/>
<path d="M121.009 64.6664C120.954 64.733 120.909 64.7996 120.909 64.8885C120.909 65.055 121.054 65.1994 121.231 65.1994C121.409 65.1994 121.542 65.055 121.542 64.8885C121.542 64.7996 121.509 64.7219 121.453 64.6664C121.387 64.6108 121.309 64.5775 121.231 64.5775C121.153 64.5775 121.065 64.6108 121.009 64.6664Z" fill="#4E261E"/>
<path d="M122.242 64.6664C122.186 64.733 122.153 64.7996 122.153 64.8885C122.153 65.055 122.297 65.1994 122.464 65.1994C122.63 65.1994 122.775 65.055 122.775 64.8885C122.775 64.7996 122.742 64.7219 122.686 64.6664C122.63 64.6108 122.553 64.5775 122.464 64.5775C122.375 64.5775 122.308 64.6108 122.242 64.6664Z" fill="#4E261E"/>
<path d="M123.463 64.6664C123.397 64.733 123.375 64.7996 123.375 64.8885C123.375 65.055 123.519 65.1994 123.686 65.1994C123.852 65.1994 124.008 65.055 124.008 64.8885C124.008 64.7996 123.974 64.7219 123.908 64.6664C123.852 64.6108 123.774 64.5775 123.686 64.5775C123.597 64.5775 123.519 64.6108 123.463 64.6664Z" fill="#4E261E"/>
<path d="M124.696 64.6664C124.641 64.733 124.607 64.7996 124.607 64.8885C124.607 65.055 124.752 65.1994 124.918 65.1994C125.085 65.1994 125.229 65.055 125.229 64.8885C125.229 64.7996 125.196 64.7219 125.14 64.6664C125.085 64.6108 124.996 64.5775 124.918 64.5775C124.841 64.5775 124.752 64.6108 124.696 64.6664Z" fill="#4E261E"/>
<path d="M125.929 64.6664C125.862 64.733 125.829 64.7996 125.829 64.8885C125.829 65.055 125.973 65.1994 126.151 65.1994C126.329 65.1994 126.462 65.055 126.462 64.8885C126.462 64.7996 126.429 64.7219 126.373 64.6664C126.318 64.6108 126.24 64.5775 126.151 64.5775C126.062 64.5775 125.984 64.6108 125.929 64.6664Z" fill="#4E261E"/>
<path d="M127.15 64.6664C127.095 64.733 127.062 64.7996 127.062 64.8885C127.062 65.055 127.206 65.1994 127.373 65.1994C127.539 65.1994 127.684 65.055 127.684 64.8885C127.684 64.7996 127.65 64.7219 127.595 64.6664C127.528 64.6108 127.45 64.5775 127.373 64.5775C127.295 64.5775 127.206 64.6108 127.15 64.6664Z" fill="#4E261E"/>
<path d="M128.383 64.6664C128.328 64.733 128.294 64.7996 128.294 64.8885C128.294 65.055 128.439 65.1994 128.605 65.1994C128.772 65.1994 128.916 65.055 128.916 64.8885C128.916 64.7996 128.883 64.7219 128.827 64.6664C128.761 64.6108 128.683 64.5775 128.605 64.5775C128.528 64.5775 128.439 64.6108 128.383 64.6664Z" fill="#4E261E"/>
<path d="M129.616 64.6664C129.549 64.733 129.527 64.7996 129.527 64.8885C129.527 65.055 129.671 65.1994 129.838 65.1994C130.005 65.1994 130.149 65.055 130.149 64.8885C130.149 64.7219 130.005 64.5664 129.838 64.5664C129.749 64.5664 129.671 64.5997 129.616 64.6553V64.6664Z" fill="#4E261E"/>
<path d="M130.837 64.6664C130.782 64.733 130.749 64.7996 130.749 64.8885C130.749 65.055 130.893 65.1994 131.059 65.1994C131.226 65.1994 131.37 65.055 131.37 64.8885C131.37 64.7219 131.226 64.5664 131.059 64.5664C130.971 64.5664 130.893 64.5997 130.837 64.6553V64.6664Z" fill="#4E261E"/>
<path d="M132.07 64.6664C132.015 64.733 131.97 64.7996 131.97 64.8885C131.97 65.055 132.114 65.1994 132.292 65.1994C132.47 65.1994 132.603 65.055 132.603 64.8885C132.603 64.7219 132.459 64.5664 132.292 64.5664C132.214 64.5664 132.126 64.5997 132.07 64.6553V64.6664Z" fill="#4E261E"/>
<path d="M134.757 64.7441C134.802 64.6774 134.824 64.5997 134.802 64.5219C134.768 64.3554 134.613 64.2554 134.446 64.2887C134.291 64.322 134.18 64.4886 134.213 64.6441C134.247 64.7996 134.402 64.9106 134.569 64.8773C134.646 64.8551 134.713 64.8107 134.746 64.7441H134.757Z" fill="#4E261E"/>
<path d="M135.923 64.2443C135.89 64.0888 135.735 63.9889 135.579 64.0222C135.424 64.0555 135.324 64.211 135.346 64.3665C135.379 64.522 135.535 64.633 135.69 64.5886C135.846 64.5553 135.946 64.3998 135.923 64.2443Z" fill="#4E261E"/>
<path d="M137.034 63.9667C137.001 63.8112 136.845 63.7224 136.701 63.7446C136.556 63.7779 136.457 63.9334 136.49 64.0778C136.523 64.2332 136.668 64.3332 136.823 64.2999C136.978 64.2665 137.078 64.1111 137.045 63.9667H137.034Z" fill="#4E261E"/>
<path d="M138.145 63.6779C138.111 63.5336 137.967 63.4336 137.822 63.4669C137.667 63.5003 137.578 63.6446 137.611 63.789C137.645 63.9334 137.789 64.0333 137.934 64C138.089 63.9667 138.178 63.8223 138.145 63.6779Z" fill="#4E261E"/>
<path d="M139.266 63.4003C139.233 63.2559 139.1 63.1671 138.955 63.1893C138.811 63.2226 138.722 63.3559 138.755 63.5003C138.789 63.6446 138.922 63.7335 139.066 63.7113C139.211 63.6779 139.299 63.5447 139.266 63.4003Z" fill="#4E261E"/>
<path d="M140.343 63.3115C140.377 63.2559 140.388 63.1893 140.377 63.1227C140.343 62.9894 140.21 62.8895 140.066 62.9228C139.932 62.945 139.833 63.0893 139.866 63.2226C139.899 63.3559 140.032 63.4558 140.166 63.4225C140.232 63.4003 140.288 63.367 140.332 63.3115H140.343Z" fill="#4E261E"/>
<path d="M141.498 62.8339C141.465 62.7007 141.343 62.6118 141.21 62.6451C141.076 62.6674 140.988 62.8006 141.021 62.9339C141.043 63.0671 141.187 63.156 141.321 63.1227C141.454 63.0894 141.543 62.9672 141.509 62.8339H141.498Z" fill="#4E261E"/>
<path d="M115.068 64.7219C115.023 64.6552 115.012 64.5775 115.023 64.4887C115.057 64.3221 115.223 64.2221 115.39 64.2443C115.556 64.2777 115.668 64.4442 115.623 64.6108C115.59 64.7774 115.423 64.8774 115.257 64.844C115.179 64.8218 115.112 64.7774 115.068 64.7108V64.7219Z" fill="#4E261E"/>
<path d="M113.89 64.1999C113.924 64.0444 114.079 63.9334 114.235 63.9667C114.401 64 114.501 64.1555 114.468 64.3221C114.435 64.4775 114.279 64.5886 114.113 64.5553C113.957 64.5219 113.846 64.3665 113.89 64.1999Z" fill="#4E261E"/>
<path d="M112.747 63.9112C112.78 63.7557 112.936 63.6558 113.08 63.6891C113.235 63.7224 113.335 63.8779 113.302 64.0334C113.269 64.1888 113.113 64.2888 112.958 64.2555C112.802 64.2222 112.702 64.0667 112.736 63.9112H112.747Z" fill="#4E261E"/>
<path d="M111.614 63.6336C111.647 63.4892 111.792 63.3893 111.936 63.4226C112.092 63.4559 112.18 63.6003 112.158 63.7557C112.125 63.9112 111.98 64 111.825 63.9667C111.681 63.9334 111.581 63.789 111.614 63.6336Z" fill="#4E261E"/>
<path d="M110.481 63.3448C110.515 63.2004 110.659 63.1005 110.803 63.1338C110.948 63.1671 111.048 63.3115 111.014 63.4559C110.981 63.6002 110.837 63.7002 110.703 63.6669C110.559 63.6336 110.459 63.4892 110.492 63.3448H110.481Z" fill="#4E261E"/>
<path d="M109.371 63.256C109.337 63.2004 109.315 63.1338 109.337 63.0561C109.371 62.9117 109.504 62.8229 109.648 62.8562C109.793 62.8895 109.882 63.0228 109.859 63.1671C109.826 63.3004 109.693 63.4003 109.548 63.367C109.482 63.3448 109.415 63.3115 109.382 63.256H109.371Z" fill="#4E261E"/>
<path d="M108.205 62.7673C108.238 62.6341 108.371 62.5452 108.505 62.5674C108.638 62.5896 108.727 62.734 108.704 62.8673C108.671 63.0116 108.549 63.0894 108.405 63.0672C108.26 63.0338 108.182 62.9117 108.205 62.7673Z" fill="#4E261E"/>
<path d="M128.949 51.773V56.826C128.949 56.6816 129.072 56.5705 129.216 56.5705H120.632C120.776 56.5705 120.898 56.6927 120.898 56.826V41.6339C120.898 40.0125 122.142 39.3017 122.153 39.2906C122.264 39.2351 122.32 39.1352 122.342 39.0241C122.342 39.0352 122.342 39.0574 122.342 39.0685C122.342 39.0463 122.353 38.9908 122.353 38.9686C122.353 38.9131 122.353 38.8242 122.275 38.7354C122.275 38.7354 121.72 37.9802 121.72 36.9474C121.72 35.3705 124.718 33.8157 125.063 33.638C124.985 33.6713 124.896 33.6713 124.829 33.638C125.984 34.2266 128.183 35.6814 128.183 36.9474C128.183 37.9802 127.617 38.7354 127.617 38.7465C127.572 38.8131 127.539 38.8908 127.539 38.9686C127.539 39.0019 127.539 39.0463 127.55 39.0796C127.583 39.1685 127.639 39.2351 127.717 39.2795C127.717 39.2795 127.739 39.2795 127.739 39.2906C127.739 39.2906 128.983 40.0014 128.983 41.6228V48.2082C128.983 48.3526 129.105 48.4747 129.249 48.4747C129.394 48.4747 129.505 48.3526 129.505 48.2082V41.6228C129.505 39.6571 127.972 38.8242 127.961 38.8242C127.961 38.8242 127.972 38.8242 127.983 38.8353C128.005 38.8575 128.028 38.8797 128.039 38.902C128.05 38.9353 128.05 38.9575 128.05 38.9908C128.05 39.0241 128.028 39.0463 128.017 39.0574C128.017 39.0685 128.683 38.169 128.683 36.9474C128.683 35.0928 125.418 33.3715 125.051 33.1827C124.974 33.1494 124.885 33.1494 124.818 33.1827C124.207 33.4825 121.187 35.1039 121.187 36.9585C121.187 38.1801 121.864 39.0796 121.875 39.0907C121.853 39.0685 121.831 39.0241 121.831 38.9797C121.831 38.9575 121.831 38.9464 121.831 38.9242C121.831 38.9353 121.831 38.9575 121.831 38.9686C121.831 38.9131 121.864 38.8686 121.909 38.8464C121.909 38.8464 120.387 39.6682 120.387 41.645V56.8371C120.387 56.9814 120.498 57.1036 120.654 57.1036H129.238C129.383 57.1036 129.494 56.9814 129.494 56.8371V51.7841C129.494 51.6398 129.371 51.5287 129.238 51.5287C129.105 51.5287 128.972 51.6509 128.972 51.7841L128.949 51.773Z" fill="#4E261E"/>
<path d="M128.949 49.5298V50.6403C128.949 50.7847 129.072 50.9068 129.216 50.9068C129.36 50.9068 129.471 50.7847 129.471 50.6403V49.5298C129.471 49.3854 129.349 49.2744 129.216 49.2744C129.083 49.2744 128.949 49.3965 128.949 49.5298Z" fill="#4E261E"/>
<path d="M121.242 59.1026C121.242 59.2803 121.12 59.4246 120.954 59.4246C120.787 59.4246 120.665 59.2803 120.665 59.1026C120.665 58.9249 120.798 58.7805 120.954 58.7805C121.109 58.7805 121.242 58.9249 121.242 59.1026Z" fill="#4E261E"/>
<path d="M122.564 59.1026C122.564 59.2803 122.442 59.4246 122.275 59.4246C122.109 59.4246 121.987 59.2803 121.987 59.1026C121.987 58.9249 122.12 58.7805 122.275 58.7805C122.431 58.7805 122.564 58.9249 122.564 59.1026Z" fill="#4E261E"/>
<path d="M123.886 59.1026C123.886 59.2803 123.752 59.4246 123.597 59.4246C123.441 59.4246 123.308 59.2803 123.308 59.1026C123.308 58.9249 123.441 58.7805 123.597 58.7805C123.752 58.7805 123.886 58.9249 123.886 59.1026Z" fill="#4E261E"/>
<path d="M125.207 59.1026C125.207 59.2803 125.074 59.4246 124.918 59.4246C124.763 59.4246 124.63 59.2803 124.63 59.1026C124.63 58.9249 124.763 58.7805 124.918 58.7805C125.074 58.7805 125.207 58.9249 125.207 59.1026Z" fill="#4E261E"/>
<path d="M126.529 59.1026C126.529 59.2803 126.395 59.4246 126.24 59.4246C126.084 59.4246 125.951 59.2803 125.951 59.1026C125.951 58.9249 126.084 58.7805 126.24 58.7805C126.395 58.7805 126.529 58.9249 126.529 59.1026Z" fill="#4E261E"/>
<path d="M127.85 59.1026C127.85 59.2803 127.717 59.4246 127.561 59.4246C127.406 59.4246 127.273 59.2803 127.273 59.1026C127.273 58.9249 127.395 58.7805 127.561 58.7805C127.728 58.7805 127.85 58.9249 127.85 59.1026Z" fill="#4E261E"/>
<path d="M129.172 59.1026C129.172 59.2803 129.05 59.4246 128.883 59.4246C128.716 59.4246 128.594 59.2803 128.594 59.1026C128.594 58.9249 128.716 58.7805 128.883 58.7805C129.05 58.7805 129.172 58.9249 129.172 59.1026Z" fill="#4E261E"/>
<path d="M121.243 60.1798C121.243 60.3575 121.12 60.5018 120.954 60.5018C120.787 60.5018 120.665 60.3575 120.665 60.1798C120.665 60.0021 120.798 59.8577 120.954 59.8577C121.109 59.8577 121.243 60.0021 121.243 60.1798Z" fill="#4E261E"/>
<path d="M122.564 60.1798C122.564 60.3575 122.442 60.5018 122.275 60.5018C122.109 60.5018 121.987 60.3575 121.987 60.1798C121.987 60.0021 122.12 59.8577 122.275 59.8577C122.431 59.8577 122.564 60.0021 122.564 60.1798Z" fill="#4E261E"/>
<path d="M123.886 60.1798C123.886 60.3575 123.752 60.5018 123.597 60.5018C123.441 60.5018 123.308 60.3575 123.308 60.1798C123.308 60.0021 123.441 59.8577 123.597 59.8577C123.752 59.8577 123.886 60.0021 123.886 60.1798Z" fill="#4E261E"/>
<path d="M125.207 60.1798C125.207 60.3575 125.074 60.5018 124.919 60.5018C124.763 60.5018 124.63 60.3575 124.63 60.1798C124.63 60.0021 124.763 59.8577 124.919 59.8577C125.074 59.8577 125.207 60.0021 125.207 60.1798Z" fill="#4E261E"/>
<path d="M126.529 60.1798C126.529 60.3575 126.396 60.5018 126.24 60.5018C126.085 60.5018 125.951 60.3575 125.951 60.1798C125.951 60.0021 126.085 59.8577 126.24 59.8577C126.396 59.8577 126.529 60.0021 126.529 60.1798Z" fill="#4E261E"/>
<path d="M127.85 60.1798C127.85 60.3575 127.717 60.5018 127.562 60.5018C127.406 60.5018 127.273 60.3575 127.273 60.1798C127.273 60.0021 127.395 59.8577 127.562 59.8577C127.728 59.8577 127.85 60.0021 127.85 60.1798Z" fill="#4E261E"/>
<path d="M129.172 60.1798C129.172 60.3575 129.05 60.5018 128.883 60.5018C128.717 60.5018 128.594 60.3575 128.594 60.1798C128.594 60.0021 128.717 59.8577 128.883 59.8577C129.05 59.8577 129.172 60.0021 129.172 60.1798Z" fill="#4E261E"/>
<path d="M133.725 58.6584C133.725 58.8027 133.625 58.9249 133.492 58.9471C133.369 58.9582 133.258 58.8583 133.258 58.7139C133.258 58.5695 133.369 58.4363 133.492 58.4252C133.625 58.4141 133.725 58.514 133.725 58.6584Z" fill="#4E261E"/>
<path d="M134.791 58.5362C134.791 58.6805 134.68 58.8027 134.558 58.8138C134.436 58.8249 134.324 58.725 134.324 58.5806C134.324 58.4362 134.436 58.3141 134.558 58.2919C134.691 58.2808 134.791 58.3807 134.791 58.5251V58.5362Z" fill="#4E261E"/>
<path d="M135.857 58.414C135.857 58.5584 135.757 58.6806 135.624 58.7028C135.491 58.7139 135.391 58.6139 135.391 58.4696C135.391 58.3252 135.491 58.203 135.624 58.1808C135.757 58.1697 135.857 58.2697 135.857 58.414Z" fill="#4E261E"/>
<path d="M136.923 58.303C136.923 58.4473 136.823 58.5695 136.69 58.5806C136.568 58.5917 136.457 58.4917 136.457 58.3474C136.457 58.203 136.568 58.0697 136.69 58.0586C136.812 58.0475 136.923 58.1475 136.923 58.2918V58.303Z" fill="#4E261E"/>
<path d="M138 58.1808C138 58.3252 137.889 58.4474 137.767 58.4696C137.645 58.4807 137.534 58.3807 137.534 58.2364C137.534 58.092 137.634 57.9698 137.767 57.9587C137.9 57.9476 138 58.0476 138 58.1919V58.1808Z" fill="#4E261E"/>
<path d="M133.725 59.5357C133.725 59.6801 133.625 59.8022 133.492 59.8133C133.37 59.8244 133.259 59.7245 133.259 59.5801C133.259 59.4357 133.37 59.3136 133.492 59.3025C133.625 59.2914 133.725 59.3913 133.725 59.5357Z" fill="#4E261E"/>
<path d="M134.791 59.4136C134.791 59.5579 134.68 59.6801 134.558 59.7023C134.436 59.7134 134.325 59.6135 134.325 59.4691C134.325 59.3247 134.436 59.2026 134.558 59.1915C134.691 59.1803 134.791 59.2803 134.791 59.4247V59.4136Z" fill="#4E261E"/>
<path d="M135.857 59.2914C135.857 59.4357 135.757 59.5579 135.624 59.569C135.491 59.5801 135.391 59.4802 135.391 59.3358C135.391 59.1914 135.491 59.0693 135.624 59.0582C135.757 59.047 135.857 59.147 135.857 59.2914Z" fill="#4E261E"/>
<path d="M136.923 59.1803C136.923 59.3247 136.823 59.4469 136.69 59.458C136.568 59.4802 136.457 59.3691 136.457 59.2248C136.457 59.0804 136.568 58.9471 136.69 58.936C136.812 58.9249 136.923 59.0249 136.923 59.1692V59.1803Z" fill="#4E261E"/>
<path d="M138 59.0581C138 59.2025 137.889 59.3247 137.767 59.3469C137.645 59.358 137.534 59.2469 137.534 59.1137C137.534 58.9804 137.634 58.8472 137.767 58.836C137.901 58.8249 138 58.9249 138 59.0693V59.0581Z" fill="#4E261E"/>
<path d="M115.99 58.6584C115.99 58.8027 116.089 58.9249 116.223 58.9471C116.356 58.9582 116.456 58.8583 116.456 58.7139C116.456 58.5695 116.356 58.4363 116.223 58.4252C116.089 58.4141 115.99 58.514 115.99 58.6584Z" fill="#4E261E"/>
<path d="M114.912 58.5362C114.912 58.6805 115.012 58.8027 115.145 58.8138C115.279 58.8249 115.379 58.725 115.379 58.5806C115.379 58.4362 115.279 58.3141 115.145 58.2919C115.023 58.2808 114.912 58.3807 114.912 58.5251V58.5362Z" fill="#4E261E"/>
<path d="M113.846 58.414C113.846 58.5584 113.946 58.6806 114.079 58.7028C114.213 58.7139 114.313 58.6139 114.313 58.4696C114.313 58.3252 114.213 58.203 114.079 58.1808C113.957 58.1697 113.846 58.2697 113.846 58.414Z" fill="#4E261E"/>
<path d="M112.78 58.303C112.78 58.4473 112.88 58.5695 113.013 58.5806C113.147 58.5917 113.246 58.4917 113.246 58.3474C113.246 58.203 113.147 58.0697 113.013 58.0586C112.891 58.0475 112.78 58.1475 112.78 58.2918V58.303Z" fill="#4E261E"/>
<path d="M111.714 58.1808C111.714 58.3252 111.814 58.4474 111.947 58.4696C112.069 58.4807 112.18 58.3807 112.18 58.2364C112.18 58.092 112.08 57.9698 111.947 57.9587C111.825 57.9476 111.714 58.0476 111.714 58.1919V58.1808Z" fill="#4E261E"/>
<path d="M115.99 59.5357C115.99 59.6801 116.089 59.8022 116.223 59.8133C116.356 59.8244 116.456 59.7245 116.456 59.5801C116.456 59.4357 116.356 59.3136 116.223 59.3025C116.089 59.2914 115.99 59.3913 115.99 59.5357Z" fill="#4E261E"/>
<path d="M114.912 59.4136C114.912 59.5579 115.012 59.6801 115.145 59.7023C115.279 59.7134 115.379 59.6135 115.379 59.4691C115.379 59.3247 115.279 59.2026 115.145 59.1915C115.023 59.1803 114.912 59.2803 114.912 59.4247V59.4136Z" fill="#4E261E"/>
<path d="M113.846 59.2914C113.846 59.4357 113.946 59.5579 114.079 59.569C114.213 59.5801 114.313 59.4802 114.313 59.3358C114.313 59.1914 114.213 59.0693 114.079 59.0582C113.957 59.047 113.846 59.147 113.846 59.2914Z" fill="#4E261E"/>
<path d="M112.78 59.1803C112.78 59.3247 112.88 59.4469 113.013 59.458C113.147 59.4802 113.246 59.3691 113.246 59.2248C113.246 59.0804 113.147 58.9471 113.013 58.936C112.891 58.9249 112.78 59.0249 112.78 59.1692V59.1803Z" fill="#4E261E"/>
<path d="M111.714 59.0581C111.714 59.2025 111.814 59.3247 111.947 59.3469C112.069 59.358 112.18 59.2469 112.18 59.1137C112.18 58.9804 112.08 58.8472 111.947 58.836C111.825 58.8249 111.714 58.9249 111.714 59.0693V59.0581Z" fill="#4E261E"/>
<path d="M117.877 24.7316L110.626 25.0536C110.559 25.0536 110.503 25.0758 110.437 25.098L107.405 26.4307C107.138 26.5418 107.016 26.8527 107.138 27.1192C107.25 27.3858 107.56 27.5079 107.827 27.3858L110.859 26.0642C110.803 26.0864 110.737 26.1086 110.67 26.1086L117.922 25.7866C118.21 25.7755 118.433 25.5312 118.421 25.2424C118.41 24.9537 118.166 24.7316 117.877 24.7427V24.7316Z" fill="#4E261E"/>
<path d="M142.431 26.4196L139.4 25.0869C139.344 25.0647 139.277 25.0425 139.211 25.0425L131.959 24.7205H119.965C119.676 24.7205 119.443 24.9537 119.443 25.2424C119.443 25.5311 119.676 25.7644 119.965 25.7644H131.937L139.166 26.0864C139.1 26.0864 139.044 26.0642 138.978 26.042L142.009 27.3635C142.276 27.4746 142.587 27.3635 142.698 27.097C142.809 26.8305 142.698 26.5195 142.431 26.4085V26.4196Z" fill="#4E261E"/>
<path d="M107.15 28.6962L107.794 30.0288C107.883 30.2176 108.071 30.3287 108.271 30.3176L117.889 30.1399C117.744 30.1399 117.611 30.0844 117.511 29.9844C117.411 29.8845 117.355 29.7512 117.355 29.6068C117.355 29.7512 117.411 29.8956 117.522 29.9844C117.622 30.0844 117.766 30.1399 117.911 30.1288H118.066H131.804C131.77 30.1288 131.926 30.1288 131.926 30.1288C132.092 30.1288 132.248 30.0732 132.359 29.9511C132.259 30.0732 132.114 30.1288 131.959 30.1288L141.576 30.3065C141.776 30.3065 141.965 30.1954 142.054 30.0177L142.698 28.6851C142.82 28.4297 142.72 28.1076 142.454 27.9854C142.198 27.8633 141.876 27.9632 141.754 28.2298L141.11 29.5624C141.199 29.3736 141.387 29.2626 141.587 29.2737L131.97 29.096C131.815 29.096 131.67 29.1626 131.559 29.2737C131.67 29.1515 131.815 29.0849 131.981 29.096H131.826H118.033C118 29.096 117.844 29.096 117.844 29.096C117.988 29.096 118.133 29.1404 118.233 29.2403C118.333 29.3403 118.399 29.4736 118.399 29.6179C118.399 29.4736 118.344 29.3403 118.244 29.2403C118.144 29.1404 118.011 29.0849 117.866 29.0849L108.249 29.2625C108.449 29.2625 108.638 29.3736 108.727 29.5513L108.083 28.2187C107.96 27.9632 107.638 27.8522 107.383 27.9743C107.127 28.0965 107.016 28.4185 107.139 28.674L107.15 28.6962Z" fill="#4E261E"/>
<path d="M110.204 28.041L107.594 28.1965C107.449 28.1965 107.338 28.3297 107.35 28.4741C107.35 28.6185 107.483 28.7295 107.627 28.7184L110.237 28.5629C110.381 28.5629 110.492 28.4297 110.481 28.2853C110.481 28.1409 110.348 28.0299 110.204 28.041Z" fill="#4E261E"/>
<path d="M125.507 27.6412H116.867L111.214 27.9854C111.07 27.9854 110.959 28.1187 110.97 28.2631C110.97 28.4074 111.103 28.5185 111.248 28.5074L116.889 28.1631H125.518C125.662 28.1631 125.784 28.041 125.784 27.9077C125.784 27.7744 125.662 27.6412 125.518 27.6412H125.507Z" fill="#4E261E"/>
<path d="M127.117 27.6412H126.551C126.406 27.6412 126.284 27.7633 126.284 27.9077C126.284 28.0521 126.395 28.1631 126.551 28.1631H127.117C127.261 28.1631 127.372 28.041 127.372 27.9077C127.372 27.7744 127.25 27.6412 127.117 27.6412Z" fill="#4E261E"/>
<path d="M142.243 28.2075L133.558 27.6412H128.194C128.05 27.6412 127.928 27.7633 127.928 27.9077C127.928 28.0521 128.05 28.1631 128.194 28.1631H133.536L142.198 28.7295C142.342 28.7295 142.465 28.6295 142.476 28.4852C142.476 28.3408 142.376 28.2186 142.231 28.2075H142.243Z" fill="#4E261E"/>
<path d="M118.055 21.8886H116.656C116.656 21.8886 116.634 21.8886 116.622 21.8886L109.571 22.7104C109.426 22.7215 109.326 22.8548 109.337 22.9991C109.36 23.1435 109.482 23.2435 109.626 23.2324L116.678 22.4106C116.678 22.4106 116.656 22.4106 116.645 22.4106H118.044C118.188 22.4106 118.31 22.2884 118.31 22.144C118.31 21.9997 118.188 21.8775 118.044 21.8775L118.055 21.8886Z" fill="#4E261E"/>
<path d="M119.665 21.8886H119.143C118.999 21.8886 118.888 22.0108 118.888 22.1551C118.888 22.2995 118.999 22.4217 119.143 22.4217H119.665C119.81 22.4217 119.932 22.2995 119.932 22.1551C119.932 22.0108 119.821 21.8886 119.665 21.8886Z" fill="#4E261E"/>
<path d="M136.112 22.2218L133.214 21.8886C133.214 21.8886 133.192 21.8886 133.181 21.8886H120.698C120.554 21.8886 120.432 22.0108 120.432 22.1551C120.432 22.2995 120.554 22.4217 120.698 22.4217H133.181C133.181 22.4217 133.158 22.4217 133.147 22.4217L136.046 22.7548C136.19 22.777 136.323 22.666 136.334 22.5216C136.357 22.3773 136.246 22.244 136.101 22.2329L136.112 22.2218Z" fill="#4E261E"/>
<path d="M140.255 22.7104L137.278 22.3661C137.134 22.3439 137.001 22.455 136.99 22.5993C136.967 22.7437 137.078 22.877 137.223 22.8881L140.199 23.2323C140.343 23.2434 140.477 23.1435 140.488 22.9991C140.51 22.8547 140.399 22.7215 140.255 22.7104Z" fill="#4E261E"/>
<path d="M107.094 26.8971V28.4629C107.094 28.7517 107.327 28.9849 107.616 28.9849C107.905 28.9849 108.138 28.7517 108.138 28.4629V26.8971C108.138 26.6083 107.905 26.3751 107.616 26.3751C107.327 26.3751 107.094 26.6083 107.094 26.8971Z" fill="#4E261E"/>
<path d="M133.225 63.4891H116.612C116.467 63.4891 116.345 63.6113 116.345 63.7557C116.345 63.9 116.467 64.0111 116.612 64.0111H133.225C133.369 64.0111 133.48 63.8889 133.48 63.7557C133.48 63.6224 133.358 63.4891 133.225 63.4891Z" fill="#4E261E"/>
<path fill-rule="evenodd" clip-rule="evenodd" d="M135.468 16.4692H132.248C132.037 16.4692 131.859 16.6469 131.859 16.8579C131.859 17.0689 132.037 17.2466 132.248 17.2466H135.468C135.679 17.2466 135.857 17.0689 135.857 16.8579C135.857 16.6469 135.679 16.4692 135.468 16.4692Z" fill="#4E261E"/>
<path fill-rule="evenodd" clip-rule="evenodd" d="M135.568 14.7701H133.192C132.981 14.7701 132.803 14.9478 132.803 15.1588C132.803 15.3698 132.981 15.5475 133.192 15.5475H135.568C135.779 15.5475 135.957 15.3698 135.957 15.1588C135.957 14.9478 135.779 14.7701 135.568 14.7701Z" fill="#4E261E"/>
</svg>
