<svg width="169" height="141" viewBox="0 0 169 141" fill="none" xmlns="http://www.w3.org/2000/svg">
<mask id="mask0_85_144010" style="mask-type:luminance" maskUnits="userSpaceOnUse" x="0" y="0" width="169" height="169">
<path d="M169 0H0V169H169V0Z" fill="white"/>
</mask>
<g mask="url(#mask0_85_144010)">
</g>
<g clip-path="url(#clip0_85_144010)">
<path d="M71.8068 52.8589L88.4859 51.0861L104.274 52.9707L104.946 55.6726L71.6341 57.8529L71.8068 52.8589Z" fill="#38282B"/>
<path d="M126.92 65.6216L133.844 64.069C134.258 63.9738 134.685 64.1242 134.957 64.4492L136.047 65.7707C136.249 66.0126 136.338 66.3351 136.296 66.6457L135.639 71.1976C135.547 71.8251 134.956 72.2536 134.336 72.1486L128.344 71.1236C127.883 71.0469 127.516 70.6923 127.432 70.2305L127.073 68.4024C127.017 68.1037 126.838 67.836 126.573 67.6723L126.559 67.671C126.269 67.4771 126.08 67.1735 126.048 66.8352C125.987 66.2707 126.363 65.7458 126.92 65.6216Z" fill="#EDD9BE"/>
<path d="M21.1775 100.22L12.3137 97.321L12.0344 92.3769L26.6254 88.4097L21.1775 100.22Z" fill="#594042"/>
<path d="M22.7176 89.474C21.224 91.5256 19.7278 93.528 19.596 93.5161C19.4295 93.501 15.207 92.9438 12.0421 92.5243L12.3132 97.3279L21.17 100.226L26.6179 88.4159L22.7101 89.4803L22.7176 89.474Z" fill="#443234"/>
<path d="M23.9958 119.588C17.0538 121.027 13.7634 123.769 13.4663 120.332C13.1686 116.902 13.6142 113.296 9.43616 115.104C5.2581 116.912 5.8512 121.095 0.0832078 118.994C-5.68479 116.892 -14.7805 112.54 -14.3529 106.507C-13.9245 100.467 -8.22678 101.954 -7.85914 101.988C-7.49151 102.021 -8.4849 98.1649 -6.29181 98.119C-6.29181 98.119 -9.49271 94.5452 -6.74333 88.3593C-3.99332 82.1664 4.87932 83.5781 8.26837 87.7769C11.6574 91.9757 10.1343 99.3697 7.47624 101.924C7.47624 101.924 8.10369 100.401 10.4063 103.16C12.709 105.919 11.0018 110.02 11.0018 110.02C11.0018 110.02 12.3946 108.078 14.9613 110.623C17.5287 113.161 13.1535 117.146 16.0403 118.86C18.9271 120.575 24.0034 119.582 24.0034 119.582L23.9958 119.588Z" fill="#EAE5D3"/>
<path d="M16.0328 118.867C14.1684 117.755 15.3335 115.701 15.7035 113.701C15.1986 114.333 14.5714 114.696 13.9263 114.637C12.5251 114.51 11.5684 112.488 11.7837 110.111C11.8057 109.869 11.8403 109.641 11.8818 109.415C11.298 109.606 11.0012 110.026 11.0012 110.026C11.0012 110.026 11.2695 109.38 11.4539 108.426C11.394 108.469 11.3348 108.506 11.2749 108.549C8.79105 110.106 5.87018 109.925 4.75843 108.147C3.64667 106.37 4.75163 103.668 7.23546 102.111C7.59921 101.879 7.97937 101.697 8.35702 101.542C8.10981 101.492 7.93138 101.532 7.79205 101.603C8.74316 100.522 9.51241 98.8242 9.91649 96.9114C9.12561 98.1533 8.0301 99.2069 6.66331 99.9355C2.10652 102.373 -3.74468 100.341 -6.40194 95.3981C-7.12573 94.0469 -7.5349 92.6194 -7.65904 91.2108C-8.52938 95.6455 -6.29367 98.1398 -6.29367 98.1398C-6.73506 98.1487 -7.04398 98.3164 -7.26962 98.5684C-5.41228 99.3725 -3.64437 100.469 -2.20555 101.724C1.04046 104.569 3.09466 107.291 1.21932 108.847C-2.03335 111.556 -13.0313 109.365 -14.1111 108.625C-12.6362 113.572 -4.98915 117.165 0.0882799 119.015C5.85628 121.117 5.26317 116.934 9.44124 115.125C13.6193 113.317 13.1736 116.924 13.4713 120.353C13.7691 123.783 17.0596 121.042 24.0009 119.61C24.0009 119.61 18.924 120.61 16.0378 118.888L16.0328 118.867Z" fill="#D8D2C0"/>
<path d="M11.0443 138.342C-14.3367 139.829 -23.3896 133.769 -22.9636 125.053C-22.5382 116.343 -8.34778 108.693 0.524146 111.502C9.38914 114.31 5.41499 119.966 5.41499 119.966C5.41499 119.966 7.91432 122.561 4.9893 124.665C4.9893 124.665 7.80005 123.822 9.77402 126.195C9.77402 126.195 10.0528 123.118 16.3689 123.879C22.6855 124.633 21.5052 129.633 21.5052 129.633C21.5052 129.633 21.9809 130.403 24.8804 130.666C27.7799 130.928 24.0367 125.852 27.9203 127.294C31.8033 128.743 33.9419 131.305 33.9419 131.305L26.3888 134.086C26.3888 134.086 23.5708 130.917 18.5569 131.916C13.5424 132.922 14.7072 138.128 11.0443 138.342Z" fill="#EAE5D3"/>
<path d="M27.9204 127.294C24.0374 125.845 27.773 130.928 24.8805 130.666C21.9879 130.404 21.5052 129.633 21.5052 129.633C21.5052 129.633 21.6998 128.799 21.507 127.761C21.2058 128.153 20.8642 128.527 20.4885 128.891C17.5165 131.745 13.4741 132.364 11.4536 130.274C10.1497 128.919 10.0164 126.762 10.8877 124.633C9.85887 125.336 9.77976 126.209 9.77976 126.209C9.71036 126.126 9.63277 126.056 9.56275 125.98C10.2545 127.608 9.25158 130.032 7.07678 131.729C4.63912 133.625 1.67239 133.873 0.437753 132.294C-0.796888 130.715 0.17876 127.897 2.60949 126C3.46743 125.33 4.39734 124.869 5.29391 124.622C5.10916 124.654 4.99441 124.686 4.99441 124.686C7.91942 122.582 5.4201 119.987 5.4201 119.987C5.4201 119.987 6.8091 118.01 6.11272 115.816C4.19882 118.724 0.96819 121.345 -3.116 122.966C-10.582 125.944 -18.2755 124.562 -21.1451 119.956C-22.2139 121.564 -22.8672 123.294 -22.9579 125.067C-23.3833 133.776 -14.331 139.844 11.0501 138.356C14.7199 138.144 13.5488 132.93 18.5627 131.931C23.5772 130.925 26.3945 134.101 26.3945 134.101L33.9476 131.32C33.9476 131.32 31.809 128.757 27.926 127.308L27.9204 127.294Z" fill="#D8D2C0"/>
<path d="M109.199 52.7182C109.166 50.3815 107.22 48.3187 104.855 48.1044C102.49 47.8901 100.593 49.6048 100.626 51.9414C100.659 54.2781 102.605 56.3409 104.97 56.5552C107.336 56.7695 109.233 55.0548 109.199 52.7182Z" fill="#594042"/>
<path d="M108.237 51.2196C107.715 49.6561 106.093 48.566 104.611 48.795C103.128 49.024 102.353 50.4769 102.875 52.0474C103.397 53.6179 105.02 54.7011 106.502 54.4721C107.984 54.2431 108.759 52.7901 108.237 51.2196Z" fill="#D6CDB4"/>
<path d="M91.651 51.7362C91.6179 49.3995 89.6718 47.3367 87.3065 47.1225C84.9411 46.9082 83.0444 48.6228 83.0775 50.9594C83.1106 53.2961 85.0567 55.3589 87.422 55.5732C89.7874 55.7875 91.6841 54.0728 91.651 51.7362Z" fill="#594042"/>
<path d="M90.7607 50.0625C90.1024 48.4518 88.3856 47.4857 86.9285 47.8987C85.4645 48.3111 84.8125 49.9498 85.4708 51.5606C86.1291 53.1713 87.8459 54.1373 89.303 53.7244C90.767 53.312 91.419 51.6733 90.7607 50.0625Z" fill="#D6CDB4"/>
<path d="M88.2365 50.2111C88.3207 49.2825 87.8392 48.4982 87.1645 48.4581C86.4898 48.4179 85.8721 49.1375 85.788 50.0661C85.7038 50.9948 86.1853 51.779 86.86 51.8192C87.5347 51.8593 88.1524 51.1398 88.2365 50.2111Z" fill="#EAE5D3"/>
<path d="M89.8748 49.1928C89.5971 48.7833 89.1359 48.6227 88.8446 48.8269C88.5526 49.0381 88.5421 49.5404 88.8198 49.95C89.0975 50.3595 89.5587 50.5201 89.85 50.3159C90.142 50.1047 90.1525 49.6024 89.8748 49.1928Z" fill="#EAE5D3"/>
<path d="M105.453 50.8416C105.523 50.0655 105.122 49.4072 104.551 49.3765C103.98 49.3457 103.472 49.9424 103.401 50.7255C103.33 51.5017 103.732 52.16 104.303 52.1907C104.874 52.2214 105.382 51.6247 105.453 50.8416Z" fill="#EAE5D3"/>
<path d="M106.824 49.9948C106.589 49.652 106.203 49.5122 105.963 49.6931C105.716 49.8665 105.706 50.2918 105.941 50.6346C106.175 50.9774 106.561 51.1172 106.802 50.9363C107.048 50.7629 107.059 50.3375 106.824 49.9948Z" fill="#EAE5D3"/>
<path d="M73.3467 52.9984C73.3077 50.1093 70.8961 47.5501 67.9619 47.2843C65.0278 47.0185 62.688 49.1471 62.7269 52.0363C62.7659 54.9254 65.1776 57.4846 68.1117 57.7504C71.0458 58.0162 73.3857 55.8876 73.3467 52.9984Z" fill="#594042"/>
<path d="M72.0861 51.0886C71.5632 48.987 69.6615 47.5152 67.8317 47.7966C66.0012 48.0849 64.9382 50.0148 65.4611 52.1163C65.9841 54.2179 67.8858 55.6898 69.7156 55.4084C71.546 55.12 72.6091 53.1901 72.0861 51.0886Z" fill="#D6CDB4"/>
<path d="M48.9585 133.445C52.3631 132.184 52.8201 124.957 49.9791 117.303C47.1382 109.65 42.0752 104.467 38.6706 105.728C35.2661 106.989 34.8091 114.216 37.6501 121.87C40.491 129.523 45.554 134.706 48.9585 133.445Z" fill="#38282B"/>
<path d="M125.053 103.312L111.314 103.988C109.762 104.064 108.566 105.383 108.642 106.934L108.855 111.229C108.931 112.78 110.252 113.975 111.804 113.899L125.543 113.223C127.095 113.146 128.291 111.827 128.214 110.277L128.002 105.982C127.925 104.431 126.605 103.236 125.053 103.312Z" fill="#38282B"/>
<path d="M72.7886 109.66L59.3606 112.639C57.8436 112.975 56.887 114.477 57.2241 115.992L58.1578 120.191C58.4949 121.706 59.9979 122.662 61.515 122.326L74.943 119.347C76.46 119.01 77.4166 117.509 77.0795 115.993L76.1458 111.795C75.8087 110.279 74.3057 109.323 72.7886 109.66Z" fill="#38282B"/>
<path d="M106.238 86.721L84.8933 79.3164L44.1554 103.336L41.1188 124.811L83.7698 115.184L155.315 106.902L106.238 86.721Z" fill="#38282B"/>
<path d="M151.279 113.16L140.659 112.198L139.567 124.249L150.187 125.211L151.279 113.16Z" fill="#443234"/>
<path d="M159.228 109.094C159.49 100.719 156.146 93.7928 151.755 93.6256C147.364 93.4584 143.587 100.103 143.325 108.478C143.063 116.852 146.407 123.779 150.798 123.946C155.189 124.113 158.966 117.469 159.228 109.094Z" fill="#4E261E"/>
<path d="M145.006 107.058C144.3 98.2602 140.188 90.9986 135.824 90.8408C131.461 90.683 128.49 97.6873 129.197 106.485C129.903 115.283 134.015 122.544 138.379 122.702C142.742 122.86 145.713 115.856 145.006 107.058Z" fill="#38282B"/>
<path d="M142.763 107.505C142.262 100.912 139.361 95.3464 136.273 95.0806C133.185 94.8078 131.091 99.9352 131.584 106.534C132.085 113.126 134.987 118.692 138.075 118.958C141.162 119.23 143.256 114.103 142.763 107.505Z" fill="#38282B"/>
<path d="M106.158 114.159C105.657 107.566 102.755 102 99.6674 101.735C96.58 101.462 94.486 106.589 94.9792 113.188C95.4799 119.78 98.3815 125.346 101.469 125.612C104.557 125.884 106.651 120.757 106.158 114.159Z" fill="#38282B"/>
<path d="M100.341 107.504C98.7456 98.5559 93.9308 91.1816 89.588 91.0257C89.1 91.0095 88.6454 91.087 88.2185 91.244L75.9119 91.6103L82.4427 123.811L95.18 123.4C95.2494 123.406 95.3118 123.412 95.3812 123.418C99.7239 123.574 101.943 116.446 100.348 107.498L100.341 107.504Z" fill="#4E261E"/>
<path d="M75.6089 108.617C71.4881 95.6672 74.365 89.7723 80.0895 88.7258C88.3172 87.2214 91.8955 106.082 91.8955 106.082L100.416 110.683L158.436 106.64L161.573 92.1605L155.166 74.2663L152.103 71.8018L128.853 66.5932L115.064 55.681L90.0111 52.3143L62.9677 54.783L23.2596 74.1517L19.4345 98.2316L33.9695 125.065L41.1055 124.803L75.5957 108.609L75.6089 108.617Z" fill="#C6B797"/>
<path d="M75.6089 108.617C73.3455 101.488 73.1954 96.5066 74.4735 93.2826C57.0607 100.453 30.4058 111.446 30.6486 111.468C30.8706 111.488 36.8633 118.983 41.3892 124.682L75.6089 108.617Z" fill="#D6C5A1"/>
<path d="M111.361 87.9118L96.9795 74.8218L89.1622 87.2351C89.1622 87.2351 87.1063 88.0829 83.7648 89.4571C89.3902 92.9012 91.8961 106.075 91.8961 106.075L100.417 110.676L110.341 109.982L111.355 87.9042L111.361 87.9118Z" fill="#D6C5A1"/>
<path d="M87.8881 52.5132L62.9671 54.7899L23.2659 74.1592L19.4597 98.1081L71.6432 79.2129L105.025 77.2556L87.8881 52.5132Z" fill="#D8C5A4"/>
<path d="M35.7725 70.7369L26.0668 75.51C25.5542 75.764 25.2152 76.2643 25.1776 76.8338L24.6861 84.1885C24.6184 85.1675 25.4472 85.9763 26.4277 85.8834L38.1143 84.7972C39.0172 84.7113 39.672 83.8903 39.5506 82.9919L38.0613 71.9503C37.9146 70.868 36.7541 70.2459 35.7731 70.7299L35.7725 70.7369Z" fill="#457B99"/>
<path d="M34.2207 85.1641L35.5635 74.6656L37.8309 71.3286C37.4164 70.6552 36.5341 70.3587 35.7656 70.7362L32.9916 72.0989L30.936 83.3643L29.206 85.6321L34.2137 85.1635L34.2207 85.1641Z" fill="#518CAD"/>
<path d="M26.9389 85.4896L27.4304 78.1349C27.468 77.5654 27.8077 77.0581 28.3196 76.8111L38.0253 72.0379C38.0253 72.0379 38.0543 72.0266 38.0688 72.0209L38.06 71.9642C37.9133 70.8819 36.7528 70.2597 35.7718 70.7438L26.0661 75.5169C25.5535 75.7709 25.2145 76.2712 25.1769 76.8407L24.6854 84.1954C24.6176 85.1744 25.4465 85.9832 26.427 85.8903L26.9491 85.8398C26.9314 85.7264 26.9282 85.6074 26.932 85.4889L26.9389 85.4896Z" fill="#366484"/>
<path d="M59.2662 59.4364L41.3623 68.5533C40.7539 68.8615 40.413 69.5363 40.5337 70.211L42.5226 81.6821C42.6933 82.6548 43.7181 83.2298 44.6386 82.873L66.3937 74.3216C66.7921 74.169 67.1073 73.8552 67.2692 73.4577L67.9338 71.834C68.1228 71.369 68.0797 70.8411 67.8109 70.4115L61.3069 59.9916C60.8798 59.3031 59.9931 59.0551 59.2668 59.4295L59.2662 59.4364Z" fill="#457B99"/>
<path d="M61.027 76.4345L59.6435 63.2994L61.2924 59.9973C60.8576 59.3151 59.9773 59.0746 59.2592 59.4358L55.2559 61.4766L53.4046 77.7422L52.0062 79.9771L61.0201 76.4339L61.027 76.4345Z" fill="#518CAD"/>
<path d="M43.2538 71.3727C43.1401 70.6986 43.474 70.0232 44.0824 69.715L61.7449 60.7159L61.2988 60.0048C60.8716 59.3163 59.9849 59.0683 59.2587 59.4426L41.3547 68.5595C40.7463 68.8678 40.4055 69.5426 40.5262 70.2173L42.5151 81.6884C42.6857 82.6611 43.7106 83.236 44.6311 82.8792L45.2042 82.6517L43.2469 71.3721L43.2538 71.3727Z" fill="#366484"/>
<path d="M26.1012 86.2451C25.6573 86.2049 25.241 86.0135 24.913 85.6973C24.5017 85.2967 24.2865 84.7392 24.3241 84.1697L24.8156 76.815C24.8645 76.1207 25.2773 75.5013 25.8995 75.1944L35.6052 70.4213C36.1764 70.1376 36.8259 70.1476 37.386 70.4498C37.946 70.7521 38.3177 71.2819 38.4005 71.9112L39.8898 82.9528C39.9606 83.4832 39.8152 84.0081 39.483 84.4321C39.1515 84.8493 38.673 85.1133 38.1371 85.1626L26.4505 86.2488C26.3307 86.2589 26.2116 86.2621 26.0936 86.2514L26.1012 86.2451ZM36.5872 70.9294C36.3653 70.9093 36.1377 70.9516 35.9258 71.0512L26.2201 75.8243C25.8248 76.0191 25.5582 76.4141 25.5319 76.8589L25.0404 84.2136C25.0147 84.5746 25.1504 84.9293 25.4141 85.1837C25.6778 85.4382 26.0366 85.5685 26.3967 85.5313L38.0832 84.445C38.4218 84.4128 38.7301 84.2521 38.9431 83.9849C39.1561 83.7178 39.2493 83.3839 39.2032 83.0443L37.7139 72.0027C37.6595 71.5995 37.4241 71.2638 37.064 71.0705C36.9107 70.9867 36.7537 70.9445 36.5872 70.9294Z" fill="#38282B"/>
<path d="M43.8903 83.3362C43.6267 83.3123 43.3612 83.2324 43.1215 83.0989C42.6157 82.8155 42.2687 82.3229 42.1732 81.7553L40.1844 70.2842C40.0428 69.4538 40.446 68.631 41.2013 68.2453L59.1052 59.1283C59.9998 58.6714 61.0776 58.9717 61.6089 59.8233L68.1128 70.2432C68.4365 70.7616 68.496 71.4168 68.263 71.9826L67.5983 73.6063C67.4005 74.0914 67.0091 74.4751 66.5236 74.6617L44.7686 83.2131C44.4855 83.3272 44.1885 83.3632 43.8903 83.3362ZM60.0878 59.6296C59.8659 59.6095 59.6383 59.6518 59.4258 59.7583L41.5219 68.8752C41.0453 69.1185 40.7888 69.6332 40.8811 70.1586L42.87 81.6298C42.9351 81.992 43.1521 82.2981 43.4719 82.4738C43.7916 82.6495 44.1668 82.6765 44.5073 82.5467L66.2623 73.9953C66.5668 73.8761 66.8127 73.6329 66.938 73.3298L67.6026 71.7062C67.7469 71.3489 67.7139 70.9407 67.5133 70.6081L61.0093 60.1882C60.8017 59.855 60.463 59.6566 60.0954 59.6233L60.0878 59.6296Z" fill="#38282B"/>
<path d="M74.5682 92.0056C74.1816 90.2518 71.2184 76.7989 70.5444 73.7404C70.4743 73.4336 70.5303 73.1243 70.6947 72.8527C71.0873 72.2245 71.0694 71.4194 70.6643 70.7958L62.1844 57.947C61.6494 57.137 60.5975 56.86 59.7262 57.2911L39.8899 67.281C39.1429 67.6535 38.7339 68.4619 38.8623 69.284L43.3252 97.6013C43.3707 97.8709 43.466 98.1311 43.6199 98.3617L56.3927 117.629L57.0427 117.325L44.215 97.9684C44.1229 97.8273 44.0541 97.6604 44.0276 97.4903L39.5647 69.173C39.4857 68.6558 39.7408 68.1549 40.2099 67.9179L60.0462 57.928C60.2517 57.8209 60.4787 57.7855 60.6937 57.805C61.0475 57.8371 61.3805 58.0209 61.5893 58.3403L70.0692 71.189C70.3279 71.5758 70.3306 72.0861 70.0855 72.4761C69.8233 72.8995 69.7359 73.4017 69.8458 73.8867C70.5204 76.9383 73.4837 90.3912 73.8696 92.1519C73.9044 92.3088 73.9542 92.453 74.0319 92.5998L74.4288 93.3904C74.5397 93.093 74.6631 92.8107 74.7992 92.5436L74.6692 92.2803C74.6213 92.1921 74.5878 92.0982 74.5689 91.9987L74.5682 92.0056Z" fill="#594042"/>
<path d="M161.574 92.1605L155.167 74.2594L152.11 71.7955L128.86 66.5938L114.266 54.4559L90.0112 52.3143L62.9671 54.7899L62.162 55.1851L71.7191 70.3464L95.5362 73.2308L93.763 78.0588L102.192 99.1127L102.472 110.534L158.436 106.64L161.574 92.1605Z" fill="#EDD9BE"/>
<path d="M155.167 74.2594L152.123 71.8106L143.025 74.3472L115.326 75.0237L95.5361 73.2308L93.763 78.0588L102.192 99.1126L102.472 110.534L158.436 106.64L161.573 92.1605L155.167 74.2594Z" fill="#F4E9D3"/>
<path d="M117.302 74.9792L115.326 75.0237L95.5361 73.2308L93.7629 78.0588L95.8503 83.2716L115.916 80.548L117.302 74.9792Z" fill="#705A5C"/>
<path d="M156.896 79.0974L155.167 74.2594L152.123 71.8107L143.025 74.3472L142.381 74.3587L145.105 80.6423L156.896 79.0974Z" fill="#705A5C"/>
<path d="M113.228 76.0215L96.6293 74.1333L95.2757 77.8046L96.8669 81.7776L112.16 79.7047L113.228 76.0215Z" fill="#F2EEE2"/>
<path d="M154.876 78.3204L153.632 74.8399L151.435 73.0758L144.68 75.2237L147.514 79.2185L154.876 78.3204Z" fill="#F2EEE2"/>
<path d="M112.303 90.2469L116.064 96.0584L149.187 95.9571L151.816 88.0835L143.025 74.3471L115.25 75.0168L112.303 90.2469Z" fill="#4E261E"/>
<path d="M114.894 89.3637L117.53 92.9982L147.958 91.3811L148.812 87.5108L141.265 75.7178L117.421 76.2964L114.894 89.3637Z" fill="#6B5154"/>
<path d="M41.4029 125.689L49.8178 120.73C49.5401 120.013 49.2352 119.286 48.9032 118.551C44.3346 108.46 36.5795 101.119 31.5827 102.162C27.9831 102.912 26.7919 107.8 28.1098 114.249L33.9752 125.079L41.4029 125.689Z" fill="#38282B"/>
<path d="M29.8206 107.871L37.0826 125.053L43.6932 124.339L49.8184 120.723C49.5407 120.006 49.2358 119.279 48.9038 118.544C46.5151 113.262 43.2533 108.739 39.9694 105.772L29.8212 107.864L29.8206 107.871Z" fill="#4E261E"/>
<path d="M40.9824 120.914C38.7321 113.409 33.8763 107.568 30.1429 107.866C26.4094 108.163 25.2075 114.482 27.4647 121.988C29.715 129.493 34.5707 135.334 38.3042 135.037C42.0377 134.739 43.2396 128.42 40.9824 120.914Z" fill="#594042"/>
<path d="M38.7719 121.846C37.1069 116.217 33.5985 111.714 30.9338 111.794C28.269 111.874 27.4523 116.488 29.1104 122.116C30.7754 127.745 34.2838 132.248 36.9485 132.168C39.6196 132.096 40.4299 127.474 38.7719 121.846Z" fill="#443234"/>
<path d="M34.158 117.04C36.3299 117.537 38.4063 120.709 39.4212 124.713C39.2803 123.799 39.0661 122.844 38.7719 121.846C37.1069 116.217 33.5985 111.714 30.9338 111.794C28.2627 111.867 27.4524 116.488 29.1104 122.116C29.3459 122.913 29.618 123.692 29.9216 124.433C29.8618 119.69 31.6368 116.462 34.158 117.04Z" fill="#38282B"/>
<path d="M37.7668 121.978C36.7389 118.504 34.5712 115.722 32.9242 115.761C31.2771 115.801 30.7732 118.662 31.8005 122.144C32.8278 125.625 34.9961 128.4 36.6431 128.36C38.2902 128.321 38.7941 125.46 37.7668 121.978Z" fill="#705A5C"/>
<path d="M86.6645 108.089C85.0695 99.1405 80.2547 91.7662 75.9119 91.6103C71.5692 91.4544 69.3498 98.5827 70.9455 107.524C72.5412 116.465 77.3553 123.846 81.6981 124.002C86.0409 124.158 88.2602 117.03 86.6652 108.082L86.6645 108.089Z" fill="#594042"/>
<path d="M84.1179 108.64C82.9487 101.939 79.503 96.2815 76.4219 96.0163C73.3408 95.7512 71.7848 100.962 72.9533 107.671C74.1225 114.372 77.5682 120.03 80.6493 120.295C83.7366 120.568 85.2864 115.349 84.1179 108.64Z" fill="#443234"/>
<path d="M73.0557 108.239C74.0598 104.18 76.0565 101.748 78.2474 102.421C81.207 103.332 83.3817 109.587 83.1158 116.382C83.0777 117.42 82.9816 118.403 82.8344 119.333C84.3875 117.552 84.966 113.482 84.1185 108.633C82.9493 101.932 79.5036 96.2746 76.4225 96.0094C73.3415 95.7443 71.7854 100.955 72.9539 107.664C72.9855 107.855 73.0241 108.048 73.0626 108.24L73.0557 108.239Z" fill="#38282B"/>
<path d="M82.9126 108.049C82.2819 104.436 80.4249 101.389 78.7665 101.245C77.1017 101.095 76.2661 103.912 76.8968 107.525C77.5275 111.139 79.3845 114.185 81.0429 114.329C82.7077 114.479 83.5433 111.663 82.9126 108.049Z" fill="#705A5C"/>
<path d="M64.8435 56.2316L72.7521 68.9797C72.7521 68.9797 110.255 68.5485 111.157 68.6302C112.058 68.7119 128.811 67.1275 128.811 67.1275L113.802 55.5597L90.8219 53.4777L64.8435 56.2316Z" fill="#4C81A5"/>
<path d="M84.0869 55.3339L76.2385 68.9392C79.641 68.8981 85.108 68.8414 90.715 68.7835L89.7158 67.6938L96.0444 53.9579L90.8143 53.484L81.8184 54.4367L84.08 55.3333L84.0869 55.3339Z" fill="#5691B2"/>
<path d="M90.1176 103.552L98.7149 95.8841L162.172 92.2707L165.246 94.6173L165.096 102.988L160.435 107.429L98.508 111.6L90.9379 106.54L90.1176 103.552Z" fill="#6B5154"/>
<path d="M101.213 107.29L98.7149 95.8841L90.1176 103.552L90.9379 106.54L98.508 111.6L160.435 107.429L165.096 102.988L165.098 102.814L101.213 107.29Z" fill="#594042"/>
<path d="M124.173 65.9876L113.219 57.058L103.424 64.5899L105.023 67.0194C108.823 66.9864 111.544 66.9745 111.766 66.9946C112.273 67.0405 119.794 66.3874 124.173 65.9876Z" fill="#749EC1"/>
<path d="M71.4624 68.6253L62.9634 69.6509C62.6166 69.6963 62.3102 69.9131 62.1628 70.2282L61.3576 71.9369C61.236 72.1984 61.2298 72.4982 61.339 72.7597L63.158 77.1516C63.3758 77.6814 63.9901 77.9257 64.5146 77.6937L70.2348 75.1517C70.6212 74.9771 70.8594 74.5864 70.8347 74.1649L70.8023 73.5961C70.7426 72.4797 71.3481 71.4307 72.3518 70.9277L73.4431 70.3838C73.4494 70.3145 73.4494 70.3145 73.4557 70.2452L71.4479 68.6309L71.4624 68.6253Z" fill="#EDD9BE"/>
<path d="M72.7201 69.3331C72.6091 69.3231 72.5094 69.2651 72.4482 69.1687L64.5397 56.4207C64.4722 56.3167 64.4703 56.1838 64.5219 56.0767C64.5736 55.9696 64.6852 55.8959 64.8056 55.8788L90.7833 53.1319C90.7833 53.1319 90.8319 53.1363 90.8527 53.1382L113.833 55.2202C113.903 55.2264 113.963 55.2529 114.016 55.2926L129.024 66.8603C129.142 66.9479 129.192 67.0991 129.151 67.2421C129.11 67.3851 128.989 67.4859 128.841 67.5004C127.126 67.6665 112.032 69.0798 111.123 68.9975C110.402 68.9322 85.7053 69.196 72.7535 69.3501C72.7396 69.3489 72.7327 69.3482 72.7188 69.347L72.7201 69.3331ZM65.4459 56.5307L72.9519 68.6275C76.2213 68.5883 110.307 68.2039 111.195 68.2843C111.805 68.3396 121.19 67.499 127.884 66.8688L113.672 55.9182L90.8302 53.8488L65.4522 56.5383L65.4459 56.5307Z" fill="#594042"/>
<path d="M68.8536 50.642C68.9528 49.547 68.3799 48.6147 67.5797 48.5702C66.7795 48.5256 66.0521 49.375 65.9529 50.47C65.8537 51.565 66.4267 52.4972 67.2269 52.5418C68.0271 52.5863 68.7544 51.7369 68.8536 50.642Z" fill="#EAE5D3"/>
<path d="M70.7883 49.441C70.4614 48.9571 69.9125 48.7606 69.5682 49.0089C69.2239 49.2573 69.2121 49.8504 69.5384 50.3412C69.8654 50.8251 70.4142 51.0217 70.7585 50.7733C71.1029 50.5249 71.1146 49.9319 70.7883 49.441Z" fill="#EAE5D3"/>
<path d="M114.592 89.8464L115.509 91.1453L149.809 89.0894L149.964 88.0694L114.592 89.8464Z" fill="#443234"/>
<path d="M149.339 86.252L148.421 84.9532L114.114 87.0084L113.966 88.029L149.339 86.252Z" fill="#443234"/>
<path d="M147.717 83.3103L146.8 82.0115L114.827 83.8519L114.464 85.1536L147.717 83.3103Z" fill="#443234"/>
<path d="M143.964 77.8069L143.095 76.5055L115.765 78.0469L115.417 79.3498L143.964 77.8069Z" fill="#443234"/>
<path d="M146.542 80.5348L145.668 79.2958L115.312 81.0452L114.969 82.2857L146.542 80.5348Z" fill="#443234"/>
<path d="M59.2821 119.624L59.1673 117.88L70.2192 112.684L71.497 116.72L59.2821 119.624Z" fill="#CCC2AA"/>
<path d="M43.9206 86.7835L44.7718 91.514L52.1703 88.3554L50.3024 84.8115L43.9206 86.7835Z" fill="#BCB096"/>
<path d="M44.4178 85.8504L44.9518 88.8333L49.6223 86.8389L48.4398 84.6078L44.4178 85.8504Z" fill="#D6CDB4"/>
<path d="M79.8441 85.0284C88.7088 83.8263 91.9697 94.148 91.9697 94.148C88.1493 89.7704 84.1886 86.2465 79.8441 85.0284Z" fill="#EDD9BE"/>
<path d="M28.9356 99.1902C35.7275 97.7095 42.1271 102.412 48.1969 112.142C45.1659 104.301 37.0135 93.6268 28.9356 99.1902Z" fill="#EDD9BE"/>
<path d="M123.495 108.672L124.609 98.3768L148.293 96.7914L151.579 106.836L123.495 108.672Z" fill="#4E261E"/>
<path d="M125.139 107.738L126.015 99.4614L145.06 98.1265L147.727 106.208L125.139 107.738Z" fill="#443234"/>
<path d="M82.1585 111.355C81.7591 109.049 80.5716 107.103 79.5103 107.007C78.449 106.911 77.9156 108.707 78.3144 111.021C78.3934 111.462 78.4951 111.883 78.6195 112.286C79.364 113.485 80.2244 114.255 81.0429 114.329C81.5007 114.37 81.8885 114.182 82.208 113.819C82.325 113.145 82.3184 112.292 82.1585 111.355Z" fill="#826A6D"/>
<path d="M34.6367 122.023C33.578 122.053 32.9945 123.244 32.9813 125.01C34.0787 127.024 35.4873 128.381 36.6437 128.354C37.7024 128.324 38.2859 127.133 38.2991 125.366C37.2017 123.352 35.7931 121.995 34.6367 122.023Z" fill="#826A6D"/>
<path d="M224.913 162.333L-6.36404 141.38C-6.36404 141.38 33.7052 128.059 37.8266 127.881C41.9473 127.709 52.3604 127.556 52.3604 127.556C52.3604 127.556 94.2322 118.5 98.304 118.869C102.376 119.238 117.623 120.074 117.623 120.074C117.623 120.074 141.192 119.75 143.609 120.242C146.026 120.733 177.592 128.791 177.592 128.791C177.592 128.791 184.671 129.16 190.748 131.625C196.819 134.09 217.014 152.87 217.014 152.87L224.913 162.333Z" fill="#FAB95B"/>
<path d="M87.8492 125.579C87.8492 125.579 112.501 122.342 113.836 122.736C114.653 122.977 128.281 121.375 142.027 120.098C136.123 119.815 117.637 120.069 117.637 120.069C117.637 120.069 102.39 119.232 98.3185 118.863C94.2467 118.494 52.3749 127.55 52.3749 127.55C52.3749 127.55 41.9617 127.703 37.841 127.875C33.7204 128.047 -6.34955 141.374 -6.34955 141.374L43.3921 145.88C47.7649 129.417 87.8568 125.573 87.8568 125.573L87.8492 125.579Z" fill="#F19D44"/>
<path d="M94.191 137.096L139.767 135.481C139.767 135.481 168.221 129.71 189.267 131.072C183.585 129.104 177.592 128.791 177.592 128.791C177.592 128.791 164.065 125.337 154.041 122.815C150.184 129.333 121.426 133.128 94.1847 137.088L94.191 137.096Z" fill="#F19D44"/>
</g>
<defs>
<clipPath id="clip0_85_144010">
<rect width="252.944" height="102.93" fill="white" transform="translate(-17.7129 37) rotate(5.17678)"/>
</clipPath>
</defs>
</svg>
